# This file is brought to you by Roblox Corporation
# Generated by Roblox Studio

mtllib Central_Desk.mtl

g Part1

v 39.4186 3.14636 -36.9185 
v 39.4186 3.14636 -33.3146 
v 39.4186 2.14636 -36.9185 
v 39.4186 2.14636 -33.3146 
v 1.03382 3.14636 -33.3146 
v 39.4186 3.14636 -33.3146 
v 1.03382 3.14636 -36.9185 
v 39.4186 3.14636 -36.9185 
v 39.4186 3.14636 -33.3146 
v 1.03382 3.14636 -33.3146 
v 39.4186 2.14636 -33.3146 
v 1.03382 2.14636 -33.3146 
v 1.03382 3.14636 -33.3146 
v 1.03382 3.14636 -36.9185 
v 1.03382 2.14636 -33.3146 
v 1.03382 2.14636 -36.9185 
v 1.03382 2.14636 -36.9185 
v 39.4186 2.14636 -36.9185 
v 1.03382 2.14636 -33.3146 
v 39.4186 2.14636 -33.3146 
v 1.03382 3.14636 -36.9185 
v 39.4186 3.14636 -36.9185 
v 1.03382 2.14636 -36.9185 
v 39.4186 2.14636 -36.9185 

vn 1 0 0 
vn 1 0 0 
vn 1 0 0 
vn 1 0 0 
vn 0 1 0 
vn 0 1 0 
vn 0 1 0 
vn 0 1 0 
vn 0 0 1 
vn 0 0 1 
vn 0 0 1 
vn 0 0 1 
vn -1 0 0 
vn -1 0 0 
vn -1 0 0 
vn -1 0 0 
vn 0 -1 0 
vn 0 -1 0 
vn 0 -1 0 
vn 0 -1 0 
vn 0 0 -1 
vn 0 0 -1 
vn 0 0 -1 
vn 0 0 -1 

vt 1.45048 0.25 
vt 1 0.25 
vt 1.45048 0.125 
vt 1 0.125 
vt 5.7981 0.25 
vt 1 0.25 
vt 5.7981 -0.200483 
vt 1 -0.200483 
vt 5.7981 0.25 
vt 1 0.25 
vt 5.7981 0.125 
vt 1 0.125 
vt 1.45048 0.25 
vt 1 0.25 
vt 1.45048 0.125 
vt 1 0.125 
vt 5.7981 0.25 
vt 1 0.25 
vt 5.7981 -0.200483 
vt 1 -0.200483 
vt 5.7981 0.25 
vt 1 0.25 
vt 5.7981 0.125 
vt 1 0.125 

usemtl Part1Mtl

f 1/1/1 2/2/2 3/3/3 
f 3/3/3 2/2/2 4/4/4 
f 5/5/5 6/6/6 7/7/7 
f 7/7/7 6/6/6 8/8/8 
f 9/9/9 10/10/10 11/11/11 
f 11/11/11 10/10/10 12/12/12 
f 13/13/13 14/14/14 15/15/15 
f 15/15/15 14/14/14 16/16/16 
f 17/17/17 18/18/18 19/19/19 
f 19/19/19 18/18/18 20/20/20 
f 21/21/21 22/22/22 23/23/23 
f 23/23/23 22/22/22 24/24/24 

g Part2

v 39.5954 5.31693 -37.2818 
v 39.5954 5.31693 -32.8975 
v 39.5954 2.82969 -37.2818 
v 39.5954 2.82969 -32.8975 
v 0.759644 5.31693 -32.8975 
v 39.5954 5.31693 -32.8975 
v 0.759644 5.31693 -37.2818 
v 39.5954 5.31693 -37.2818 
v 39.5954 5.31693 -32.8975 
v 0.759644 5.31693 -32.8975 
v 39.5954 2.82969 -32.8975 
v 0.759644 2.82969 -32.8975 
v 0.759644 5.31693 -32.8975 
v 0.759644 5.31693 -37.2818 
v 0.759644 2.82969 -32.8975 
v 0.759644 2.82969 -37.2818 
v 0.759644 2.82969 -37.2818 
v 39.5954 2.82969 -37.2818 
v 0.759644 2.82969 -32.8975 
v 39.5954 2.82969 -32.8975 
v 0.759644 5.31693 -37.2818 
v 39.5954 5.31693 -37.2818 
v 0.759644 2.82969 -37.2818 
v 39.5954 2.82969 -37.2818 

vn 1 0 0 
vn 1 0 0 
vn 1 0 0 
vn 1 0 0 
vn 0 1 0 
vn 0 1 0 
vn 0 1 0 
vn 0 1 0 
vn 0 0 1 
vn 0 0 1 
vn 0 0 1 
vn 0 0 1 
vn -1 0 0 
vn -1 0 0 
vn -1 0 0 
vn -1 0 0 
vn 0 -1 0 
vn 0 -1 0 
vn 0 -1 0 
vn 0 -1 0 
vn 0 0 -1 
vn 0 0 -1 
vn 0 0 -1 
vn 0 0 -1 

vt 6.04803 0.75 
vt 5.5 0.75 
vt 6.04803 0.439095 
vt 5.5 0.439095 
vt 10.3545 0.75 
vt 5.5 0.75 
vt 10.3545 0.201974 
vt 5.5 0.201974 
vt 10.3545 0.75 
vt 5.5 0.75 
vt 10.3545 0.439095 
vt 5.5 0.439095 
vt 6.04803 0.75 
vt 5.5 0.75 
vt 6.04803 0.439095 
vt 5.5 0.439095 
vt 10.3545 0.75 
vt 5.5 0.75 
vt 10.3545 0.201974 
vt 5.5 0.201974 
vt 10.3545 0.75 
vt 5.5 0.75 
vt 10.3545 0.439095 
vt 5.5 0.439095 

usemtl Part1Mtl

f 25/25/25 26/26/26 27/27/27 
f 27/27/27 26/26/26 28/28/28 
f 29/29/29 30/30/30 31/31/31 
f 31/31/31 30/30/30 32/32/32 
f 33/33/33 34/34/34 35/35/35 
f 35/35/35 34/34/34 36/36/36 
f 37/37/37 38/38/38 39/39/39 
f 39/39/39 38/38/38 40/40/40 
f 41/41/41 42/42/42 43/43/43 
f 43/43/43 42/42/42 44/44/44 
f 45/45/45 46/46/46 47/47/47 
f 47/47/47 46/46/46 48/48/48 

