# This file is brought to you by Roblox Corporation
# Generated by Roblox Studio

mtllib Diagonal_wall1.mtl

g Part1

v 75.1803 2.05766 -44.5797 
v 75.1803 2.99451 -44.5797 
v 75.509 2.05766 -43.6352 
v 75.509 2.99451 -43.6352 
v 43.0801 2.99451 -33.4073 
v 75.1803 2.99451 -44.5797 
v 43.0801 2.05766 -33.4073 
v 75.1803 2.05766 -44.5797 
v 75.1803 2.99451 -44.5797 
v 43.0801 2.99451 -33.4073 
v 75.509 2.99451 -43.6352 
v 43.4088 2.99451 -32.4629 
v 43.0801 2.99451 -33.4073 
v 43.0801 2.05766 -33.4073 
v 43.4088 2.99451 -32.4629 
v 43.4088 2.05766 -32.4629 
v 43.4088 2.05766 -32.4629 
v 75.509 2.05766 -43.6352 
v 43.4088 2.99451 -32.4629 
v 75.509 2.99451 -43.6352 
v 43.0801 2.05766 -33.4073 
v 75.1803 2.05766 -44.5797 
v 43.4088 2.05766 -32.4629 
v 75.509 2.05766 -43.6352 

vn 0.944882 0 -0.330709 
vn 0.944882 0 -0.330709 
vn 0.944882 0 -0.330709 
vn 0.944882 0 -0.330709 
vn -0.330709 0 -0.944882 
vn -0.330709 0 -0.944882 
vn -0.330709 0 -0.944882 
vn -0.330709 0 -0.944882 
vn 0 1 0 
vn 0 1 0 
vn 0 1 0 
vn 0 1 0 
vn -0.944882 0 0.330709 
vn -0.944882 0 0.330709 
vn -0.944882 0 0.330709 
vn -0.944882 0 0.330709 
vn 0.330709 0 0.944882 
vn 0.330709 0 0.944882 
vn 0.330709 0 0.944882 
vn 0.330709 0 0.944882 
vn 0 -1 0 
vn 0 -1 0 
vn 0 -1 0 
vn 0 -1 0 

vt 1.01444 1.68574 
vt 0.897336 1.68574 
vt 1.01444 1.56074 
vt 0.897336 1.56074 
vt 5.14595 1.68574 
vt 0.897336 1.68574 
vt 5.14595 1.56863 
vt 0.897336 1.56863 
vt 5.14595 1.68574 
vt 0.897336 1.68574 
vt 5.14595 1.56074 
vt 0.897336 1.56074 
vt 1.01444 1.68574 
vt 0.897336 1.68574 
vt 1.01444 1.56074 
vt 0.897336 1.56074 
vt 5.14595 1.68574 
vt 0.897336 1.68574 
vt 5.14595 1.56863 
vt 0.897336 1.56863 
vt 5.14595 1.68574 
vt 0.897336 1.68574 
vt 5.14595 1.56074 
vt 0.897336 1.56074 

usemtl Part1Mtl

f 1/1/1 2/2/2 3/3/3 
f 3/3/3 2/2/2 4/4/4 
f 5/5/5 6/6/6 7/7/7 
f 7/7/7 6/6/6 8/8/8 
f 9/9/9 10/10/10 11/11/11 
f 11/11/11 10/10/10 12/12/12 
f 13/13/13 14/14/14 15/15/15 
f 15/15/15 14/14/14 16/16/16 
f 17/17/17 18/18/18 19/19/19 
f 19/19/19 18/18/18 20/20/20 
f 21/21/21 22/22/22 23/23/23 
f 23/23/23 22/22/22 24/24/24 

g Part2

v 75.4518 4.47903 -43.4074 
v 75.4518 5.26698 -43.4074 
v 75.5238 4.47903 -43.2006 
v 75.5238 5.26698 -43.2006 
v 43.4865 5.26698 -32.2781 
v 75.4518 5.26698 -43.4074 
v 43.4865 4.47903 -32.2781 
v 75.4518 4.47903 -43.4074 
v 75.4518 5.26698 -43.4074 
v 43.4865 5.26698 -32.2781 
v 75.5238 5.26698 -43.2006 
v 43.5585 5.26698 -32.0713 
v 43.4865 5.26698 -32.2781 
v 43.4865 4.47903 -32.2781 
v 43.5585 5.26698 -32.0713 
v 43.5585 4.47903 -32.0713 
v 43.5585 4.47903 -32.0713 
v 75.5238 4.47903 -43.2006 
v 43.5585 5.26698 -32.0713 
v 75.5238 5.26698 -43.2006 
v 43.4865 4.47903 -32.2781 
v 75.4518 4.47903 -43.4074 
v 43.5585 4.47903 -32.0713 
v 75.5238 4.47903 -43.2006 

vn 0.944882 0 -0.330709 
vn 0.944882 0 -0.330709 
vn 0.944882 0 -0.330709 
vn 0.944882 0 -0.330709 
vn -0.330709 0 -0.944882 
vn -0.330709 0 -0.944882 
vn -0.330709 0 -0.944882 
vn -0.330709 0 -0.944882 
vn 0 1 0 
vn 0 1 0 
vn 0 1 0 
vn 0 1 0 
vn -0.944882 0 0.330709 
vn -0.944882 0 0.330709 
vn -0.944882 0 0.330709 
vn -0.944882 0 0.330709 
vn 0.330709 0 0.944882 
vn 0.330709 0 0.944882 
vn 0.330709 0 0.944882 
vn 0.330709 0 0.944882 
vn 0 -1 0 
vn 0 -1 0 
vn 0 -1 0 
vn 0 -1 0 

vt 1.38364 2.8757 
vt 1.28515 2.8757 
vt 1.38364 2.84833 
vt 1.28515 2.84833 
vt 5.51606 2.8757 
vt 1.28515 2.8757 
vt 5.51606 2.77721 
vt 1.28515 2.77721 
vt 5.51606 2.8757 
vt 1.28515 2.8757 
vt 5.51606 2.84833 
vt 1.28515 2.84833 
vt 1.38364 2.8757 
vt 1.28515 2.8757 
vt 1.38364 2.84833 
vt 1.28515 2.84833 
vt 5.51606 2.8757 
vt 1.28515 2.8757 
vt 5.51606 2.77721 
vt 1.28515 2.77721 
vt 5.51606 2.8757 
vt 1.28515 2.8757 
vt 5.51606 2.84833 
vt 1.28515 2.84833 

usemtl Part1Mtl

f 25/25/25 26/26/26 27/27/27 
f 27/27/27 26/26/26 28/28/28 
f 29/29/29 30/30/30 31/31/31 
f 31/31/31 30/30/30 32/32/32 
f 33/33/33 34/34/34 35/35/35 
f 35/35/35 34/34/34 36/36/36 
f 37/37/37 38/38/38 39/39/39 
f 39/39/39 38/38/38 40/40/40 
f 41/41/41 42/42/42 43/43/43 
f 43/43/43 42/42/42 44/44/44 
f 45/45/45 46/46/46 47/47/47 
f 47/47/47 46/46/46 48/48/48 

g Part3

v 75.2151 4.72783 -43.6387 
v 75.2151 5.07462 -43.6387 
v 75.3255 4.72783 -43.3218 
v 75.3255 5.07462 -43.3218 
v 43.5118 5.07462 -32.6006 
v 75.2151 5.07462 -43.6387 
v 43.5118 4.72783 -32.6006 
v 75.2151 4.72783 -43.6387 
v 75.2151 5.07462 -43.6387 
v 43.5118 5.07462 -32.6006 
v 75.3255 5.07462 -43.3218 
v 43.6221 5.07462 -32.2837 
v 43.5118 5.07462 -32.6006 
v 43.5118 4.72783 -32.6006 
v 43.6221 5.07462 -32.2837 
v 43.6221 4.72783 -32.2837 
v 43.6221 4.72783 -32.2837 
v 75.3255 4.72783 -43.3218 
v 43.6221 5.07462 -32.2837 
v 75.3255 5.07462 -43.3218 
v 43.5118 4.72783 -32.6006 
v 75.2151 4.72783 -43.6387 
v 43.6221 4.72783 -32.2837 
v 75.3255 4.72783 -43.3218 

vn 0.944882 0 -0.330709 
vn 0.944882 0 -0.330709 
vn 0.944882 0 -0.330709 
vn 0.944882 0 -0.330709 
vn -0.330709 0 -0.944882 
vn -0.330709 0 -0.944882 
vn -0.330709 0 -0.944882 
vn -0.330709 0 -0.944882 
vn 0 1 0 
vn 0 1 0 
vn 0 1 0 
vn 0 1 0 
vn -0.944882 0 0.330709 
vn -0.944882 0 0.330709 
vn -0.944882 0 0.330709 
vn -0.944882 0 0.330709 
vn 0.330709 0 0.944882 
vn 0.330709 0 0.944882 
vn 0.330709 0 0.944882 
vn 0.330709 0 0.944882 
vn 0 -1 0 
vn 0 -1 0 
vn 0 -1 0 
vn 0 -1 0 

vt 1.31741 0.362264 
vt 1.27406 0.362264 
vt 1.31741 0.320321 
vt 1.27406 0.320321 
vt 5.47031 0.362264 
vt 1.27406 0.362264 
vt 5.47031 0.318916 
vt 1.27406 0.318916 
vt 5.47031 0.362264 
vt 1.27406 0.362264 
vt 5.47031 0.320321 
vt 1.27406 0.320321 
vt 1.31741 0.362264 
vt 1.27406 0.362264 
vt 1.31741 0.320321 
vt 1.27406 0.320321 
vt 5.47031 0.362264 
vt 1.27406 0.362264 
vt 5.47031 0.318916 
vt 1.27406 0.318916 
vt 5.47031 0.362264 
vt 1.27406 0.362264 
vt 5.47031 0.320321 
vt 1.27406 0.320321 

usemtl Part3Mtl

f 49/49/49 50/50/50 51/51/51 
f 51/51/51 50/50/50 52/52/52 
f 53/53/53 54/54/54 55/55/55 
f 55/55/55 54/54/54 56/56/56 
f 57/57/57 58/58/58 59/59/59 
f 59/59/59 58/58/58 60/60/60 
f 61/61/61 62/62/62 63/63/63 
f 63/63/63 62/62/62 64/64/64 
f 65/65/65 66/66/66 67/67/67 
f 67/67/67 66/66/66 68/68/68 
f 69/69/69 70/70/70 71/71/71 
f 71/71/71 70/70/70 72/72/72 

g Part4

v 43.0566 25.6713 -33.4949 
v 43.0566 1.23839 -33.4949 
v 43.3844 25.6713 -32.5501 
v 43.3844 1.23839 -32.5501 
v 75.1048 1.23839 -44.6151 
v 43.0566 1.23839 -33.4949 
v 75.1048 25.6713 -44.6151 
v 43.0566 25.6713 -33.4949 
v 43.0566 1.23839 -33.4949 
v 75.1048 1.23839 -44.6151 
v 43.3844 1.23839 -32.5501 
v 75.4326 1.23839 -43.6703 
v 75.1048 1.23839 -44.6151 
v 75.1048 25.6713 -44.6151 
v 75.4326 1.23839 -43.6703 
v 75.4326 25.6713 -43.6703 
v 75.4326 25.6713 -43.6703 
v 43.3844 25.6713 -32.5501 
v 75.4326 1.23839 -43.6703 
v 43.3844 1.23839 -32.5501 
v 75.1048 25.6713 -44.6151 
v 43.0566 25.6713 -33.4949 
v 75.4326 25.6713 -43.6703 
v 43.3844 25.6713 -32.5501 

vn -0.944882 0 0.330709 
vn -0.944882 0 0.330709 
vn -0.944882 0 0.330709 
vn -0.944882 0 0.330709 
vn -0.330709 0 -0.944882 
vn -0.330709 0 -0.944882 
vn -0.330709 0 -0.944882 
vn -0.330709 0 -0.944882 
vn 0 -1 0 
vn 0 -1 0 
vn 0 -1 0 
vn 0 -1 0 
vn 0.944882 0 -0.330709 
vn 0.944882 0 -0.330709 
vn 0.944882 0 -0.330709 
vn 0.944882 0 -0.330709 
vn 0.330709 0 0.944882 
vn 0.330709 0 0.944882 
vn 0.330709 0 0.944882 
vn 0.330709 0 0.944882 
vn 0 1 0 
vn 0 1 0 
vn 0 1 0 
vn 0 1 0 

vt 9.80411 -0.75 
vt 6.75 -0.75 
vt 9.80411 -0.875 
vt 6.75 -0.875 
vt 10.9903 -0.75 
vt 6.75 -0.75 
vt 10.9903 -3.80411 
vt 6.75 -3.80411 
vt 10.9903 -0.75 
vt 6.75 -0.75 
vt 10.9903 -0.875 
vt 6.75 -0.875 
vt 9.80411 -0.75 
vt 6.75 -0.75 
vt 9.80411 -0.875 
vt 6.75 -0.875 
vt 10.9903 -0.75 
vt 6.75 -0.75 
vt 10.9903 -3.80411 
vt 6.75 -3.80411 
vt 10.9903 -0.75 
vt 6.75 -0.75 
vt 10.9903 -0.875 
vt 6.75 -0.875 

usemtl Part4Mtl

f 73/73/73 74/74/74 75/75/75 
f 75/75/75 74/74/74 76/76/76 
f 77/77/77 78/78/78 79/79/79 
f 79/79/79 78/78/78 80/80/80 
f 81/81/81 82/82/82 83/83/83 
f 83/83/83 82/82/82 84/84/84 
f 85/85/85 86/86/86 87/87/87 
f 87/87/87 86/86/86 88/88/88 
f 89/89/89 90/90/90 91/91/91 
f 91/91/91 90/90/90 92/92/92 
f 93/93/93 94/94/94 95/95/95 
f 95/95/95 94/94/94 96/96/96 

