# This file is brought to you by Roblox Corporation
# Generated by Roblox Studio

mtllib Diagonal_wall2.mtl

g Part1

v -3.18775 4.72783 -32.6948 
v -3.18775 5.07462 -32.6948 
v -3.29831 4.72783 -32.378 
v -3.29831 5.07462 -32.378 
v -34.8831 5.07462 -43.7559 
v -3.18775 5.07462 -32.6948 
v -34.8831 4.72783 -43.7559 
v -3.18775 4.72783 -32.6948 
v -3.18775 5.07462 -32.6948 
v -34.8831 5.07462 -43.7559 
v -3.29831 5.07462 -32.378 
v -34.9937 5.07462 -43.439 
v -34.8831 5.07462 -43.7559 
v -34.8831 4.72783 -43.7559 
v -34.9937 5.07462 -43.439 
v -34.9937 4.72783 -43.439 
v -34.9937 4.72783 -43.439 
v -3.29831 4.72783 -32.378 
v -34.9937 5.07462 -43.439 
v -3.29831 5.07462 -32.378 
v -34.8831 4.72783 -43.7559 
v -3.18775 4.72783 -32.6948 
v -34.9937 4.72783 -43.439 
v -3.29831 4.72783 -32.378 

vn 0.944882 0 0.330709 
vn 0.944882 0 0.330709 
vn 0.944882 0 0.330709 
vn 0.944882 0 0.330709 
vn 0.330709 0 -0.944882 
vn 0.330709 0 -0.944882 
vn 0.330709 0 -0.944882 
vn 0.330709 0 -0.944882 
vn 0 1 0 
vn 0 1 0 
vn 0 1 0 
vn 0 1 0 
vn -0.944882 0 -0.330709 
vn -0.944882 0 -0.330709 
vn -0.944882 0 -0.330709 
vn -0.944882 0 -0.330709 
vn -0.330709 0 0.944882 
vn -0.330709 0 0.944882 
vn -0.330709 0 0.944882 
vn -0.330709 0 0.944882 
vn 0 -1 0 
vn 0 -1 0 
vn 0 -1 0 
vn 0 -1 0 

vt -0.773784 -0.486256 
vt -0.817132 -0.486256 
vt -0.773784 -0.528199 
vt -0.817132 -0.528199 
vt 3.37912 -0.486256 
vt -0.817132 -0.486256 
vt 3.37912 -0.529604 
vt -0.817132 -0.529604 
vt 3.37912 -0.486256 
vt -0.817132 -0.486256 
vt 3.37912 -0.528199 
vt -0.817132 -0.528199 
vt -0.773784 -0.486256 
vt -0.817132 -0.486256 
vt -0.773784 -0.528199 
vt -0.817132 -0.528199 
vt 3.37912 -0.486256 
vt -0.817132 -0.486256 
vt 3.37912 -0.529604 
vt -0.817132 -0.529604 
vt 3.37912 -0.486256 
vt -0.817132 -0.486256 
vt 3.37912 -0.528199 
vt -0.817132 -0.528199 

usemtl Part1Mtl

f 1/1/1 2/2/2 3/3/3 
f 3/3/3 2/2/2 4/4/4 
f 5/5/5 6/6/6 7/7/7 
f 7/7/7 6/6/6 8/8/8 
f 9/9/9 10/10/10 11/11/11 
f 11/11/11 10/10/10 12/12/12 
f 13/13/13 14/14/14 15/15/15 
f 15/15/15 14/14/14 16/16/16 
f 17/17/17 18/18/18 19/19/19 
f 19/19/19 18/18/18 20/20/20 
f 21/21/21 22/22/22 23/23/23 
f 23/23/23 22/22/22 24/24/24 

g Part2

v -3.14617 4.47903 -32.3664 
v -3.14617 5.26698 -32.3664 
v -3.21832 4.47903 -32.1597 
v -3.21832 5.26698 -32.1597 
v -35.1034 5.26698 -43.5189 
v -3.14617 5.26698 -32.3664 
v -35.1034 4.47903 -43.5189 
v -3.14617 4.47903 -32.3664 
v -3.14617 5.26698 -32.3664 
v -35.1034 5.26698 -43.5189 
v -3.21832 5.26698 -32.1597 
v -35.1756 5.26698 -43.3121 
v -35.1034 5.26698 -43.5189 
v -35.1034 4.47903 -43.5189 
v -35.1756 5.26698 -43.3121 
v -35.1756 4.47903 -43.3121 
v -35.1756 4.47903 -43.3121 
v -3.21832 4.47903 -32.1597 
v -35.1756 5.26698 -43.3121 
v -3.21832 5.26698 -32.1597 
v -35.1034 4.47903 -43.5189 
v -3.14617 4.47903 -32.3664 
v -35.1756 4.47903 -43.3121 
v -3.21832 4.47903 -32.1597 

vn 0.944882 0 0.330709 
vn 0.944882 0 0.330709 
vn 0.944882 0 0.330709 
vn 0.944882 0 0.330709 
vn 0.330709 0 -0.944882 
vn 0.330709 0 -0.944882 
vn 0.330709 0 -0.944882 
vn 0.330709 0 -0.944882 
vn 0 1 0 
vn 0 1 0 
vn 0 1 0 
vn 0 1 0 
vn -0.944882 0 -0.330709 
vn -0.944882 0 -0.330709 
vn -0.944882 0 -0.330709 
vn -0.944882 0 -0.330709 
vn -0.330709 0 0.944882 
vn -0.330709 0 0.944882 
vn -0.330709 0 0.944882 
vn -0.330709 0 0.944882 
vn 0 -1 0 
vn 0 -1 0 
vn 0 -1 0 
vn 0 -1 0 

vt 0.646921 0.0976713 
vt 0.548427 0.0976713 
vt 0.646921 0.0702997 
vt 0.548427 0.0702997 
vt 4.77934 0.0976713 
vt 0.548427 0.0976713 
vt 4.77934 -0.000822544 
vt 0.548427 -0.000822544 
vt 4.77934 0.0976713 
vt 0.548427 0.0976713 
vt 4.77934 0.0702997 
vt 0.548427 0.0702997 
vt 0.646921 0.0976713 
vt 0.548427 0.0976713 
vt 0.646921 0.0702997 
vt 0.548427 0.0702997 
vt 4.77934 0.0976713 
vt 0.548427 0.0976713 
vt 4.77934 -0.000822544 
vt 0.548427 -0.000822544 
vt 4.77934 0.0976713 
vt 0.548427 0.0976713 
vt 4.77934 0.0702997 
vt 0.548427 0.0702997 

usemtl Part2Mtl

f 25/25/25 26/26/26 27/27/27 
f 27/27/27 26/26/26 28/28/28 
f 29/29/29 30/30/30 31/31/31 
f 31/31/31 30/30/30 32/32/32 
f 33/33/33 34/34/34 35/35/35 
f 35/35/35 34/34/34 36/36/36 
f 37/37/37 38/38/38 39/39/39 
f 39/39/39 38/38/38 40/40/40 
f 41/41/41 42/42/42 43/43/43 
f 43/43/43 42/42/42 44/44/44 
f 45/45/45 46/46/46 47/47/47 
f 47/47/47 46/46/46 48/48/48 

g Part3

v -35.1967 2.99597 -43.6478 
v -35.183 2.99597 -43.6874 
v -35.1967 2.10732 -43.6478 
v -35.183 2.10732 -43.6874 
v -3.08427 2.99597 -32.5497 
v -35.183 2.99597 -43.6874 
v -3.09801 2.99597 -32.5101 
v -35.1967 2.99597 -43.6478 
v -35.183 2.99597 -43.6874 
v -3.08427 2.99597 -32.5497 
v -35.183 2.10732 -43.6874 
v -3.08427 2.10732 -32.5497 
v -3.08427 2.99597 -32.5497 
v -3.09801 2.99597 -32.5101 
v -3.08427 2.10732 -32.5497 
v -3.09801 2.10732 -32.5101 
v -3.09801 2.10732 -32.5101 
v -35.1967 2.10732 -43.6478 
v -3.08427 2.10732 -32.5497 
v -35.183 2.10732 -43.6874 
v -3.09801 2.99597 -32.5101 
v -35.1967 2.99597 -43.6478 
v -3.09801 2.10732 -32.5101 
v -35.1967 2.10732 -43.6478 

vn -0.944882 0 -0.330709 
vn -0.944882 0 -0.330709 
vn -0.944882 0 -0.330709 
vn -0.944882 0 -0.330709 
vn 0 1 0 
vn 0 1 0 
vn 0 1 0 
vn 0 1 0 
vn 0.330709 0 -0.944882 
vn 0.330709 0 -0.944882 
vn 0.330709 0 -0.944882 
vn 0.330709 0 -0.944882 
vn 0.944882 0 0.330709 
vn 0.944882 0 0.330709 
vn 0.944882 0 0.330709 
vn 0.944882 0 0.330709 
vn 0 -1 0 
vn 0 -1 0 
vn 0 -1 0 
vn 0 -1 0 
vn -0.330709 0 0.944882 
vn -0.330709 0 0.944882 
vn -0.330709 0 0.944882 
vn -0.330709 0 0.944882 

vt -0.661047 2.94952 
vt -0.666285 2.94952 
vt -0.661047 2.83844 
vt -0.666285 2.83844 
vt 3.58073 2.94952 
vt -0.666285 2.94952 
vt 3.58073 2.94429 
vt -0.666285 2.94429 
vt 3.58073 2.94952 
vt -0.666285 2.94952 
vt 3.58073 2.83844 
vt -0.666285 2.83844 
vt -0.661047 2.94952 
vt -0.666285 2.94952 
vt -0.661047 2.83844 
vt -0.666285 2.83844 
vt 3.58073 2.94952 
vt -0.666285 2.94952 
vt 3.58073 2.94429 
vt -0.666285 2.94429 
vt 3.58073 2.94952 
vt -0.666285 2.94952 
vt 3.58073 2.83844 
vt -0.666285 2.83844 

usemtl Part2Mtl

f 49/49/49 50/50/50 51/51/51 
f 51/51/51 50/50/50 52/52/52 
f 53/53/53 54/54/54 55/55/55 
f 55/55/55 54/54/54 56/56/56 
f 57/57/57 58/58/58 59/59/59 
f 59/59/59 58/58/58 60/60/60 
f 61/61/61 62/62/62 63/63/63 
f 63/63/63 62/62/62 64/64/64 
f 65/65/65 66/66/66 67/67/67 
f 67/67/67 66/66/66 68/68/68 
f 69/69/69 70/70/70 71/71/71 
f 71/71/71 70/70/70 72/72/72 

g Part4

v -2.75772 1.23839 -33.4949 
v -2.75772 25.6713 -33.4949 
v -3.08553 1.23839 -32.5501 
v -3.08553 25.6713 -32.5501 
v -34.8059 25.6713 -44.6151 
v -2.75772 25.6713 -33.4949 
v -34.8059 1.23839 -44.6151 
v -2.75772 1.23839 -33.4949 
v -2.75772 25.6713 -33.4949 
v -34.8059 25.6713 -44.6151 
v -3.08553 25.6713 -32.5501 
v -35.1337 25.6713 -43.6703 
v -34.8059 25.6713 -44.6151 
v -34.8059 1.23839 -44.6151 
v -35.1337 25.6713 -43.6703 
v -35.1337 1.23839 -43.6703 
v -35.1337 1.23839 -43.6703 
v -3.08553 1.23839 -32.5501 
v -35.1337 25.6713 -43.6703 
v -3.08553 25.6713 -32.5501 
v -34.8059 1.23839 -44.6151 
v -2.75772 1.23839 -33.4949 
v -35.1337 1.23839 -43.6703 
v -3.08553 1.23839 -32.5501 

vn 0.944882 0 0.330709 
vn 0.944882 0 0.330709 
vn 0.944882 0 0.330709 
vn 0.944882 0 0.330709 
vn 0.330709 0 -0.944882 
vn 0.330709 0 -0.944882 
vn 0.330709 0 -0.944882 
vn 0.330709 0 -0.944882 
vn 0 1 0 
vn 0 1 0 
vn 0 1 0 
vn 0 1 0 
vn -0.944882 0 -0.330709 
vn -0.944882 0 -0.330709 
vn -0.944882 0 -0.330709 
vn -0.944882 0 -0.330709 
vn -0.330709 0 0.944882 
vn -0.330709 0 0.944882 
vn -0.330709 0 0.944882 
vn -0.330709 0 0.944882 
vn 0 -1 0 
vn 0 -1 0 
vn 0 -1 0 
vn 0 -1 0 

vt 8.05411 -6.5 
vt 5 -6.5 
vt 8.05411 -6.625 
vt 5 -6.625 
vt 9.24032 -6.5 
vt 5 -6.5 
vt 9.24032 -9.55411 
vt 5 -9.55411 
vt 9.24032 -6.5 
vt 5 -6.5 
vt 9.24032 -6.625 
vt 5 -6.625 
vt 8.05411 -6.5 
vt 5 -6.5 
vt 8.05411 -6.625 
vt 5 -6.625 
vt 9.24032 -6.5 
vt 5 -6.5 
vt 9.24032 -9.55411 
vt 5 -9.55411 
vt 9.24032 -6.5 
vt 5 -6.5 
vt 9.24032 -6.625 
vt 5 -6.625 

usemtl Part4Mtl

f 73/73/73 74/74/74 75/75/75 
f 75/75/75 74/74/74 76/76/76 
f 77/77/77 78/78/78 79/79/79 
f 79/79/79 78/78/78 80/80/80 
f 81/81/81 82/82/82 83/83/83 
f 83/83/83 82/82/82 84/84/84 
f 85/85/85 86/86/86 87/87/87 
f 87/87/87 86/86/86 88/88/88 
f 89/89/89 90/90/90 91/91/91 
f 91/91/91 90/90/90 92/92/92 
f 93/93/93 94/94/94 95/95/95 
f 95/95/95 94/94/94 96/96/96 

