# This file is brought to you by Roblox Corporation
# Generated by Roblox Studio

mtllib door.mtl

g Wedge1

v -30.9042 10.7132 49.8558 
v -30.9042 10.7132 49.8558 
v -30.9042 10.6164 49.7592 
v -30.8557 10.6166 49.8084 
v -30.9042 10.7132 49.8558 
v -31.0205 10.5983 49.971 
v -30.8557 10.6166 49.8084 
v -30.972 10.5016 49.9236 
v -31.0205 10.5983 49.971 
v -31.0205 10.5983 49.971 
v -30.972 10.5016 49.9236 
v -31.0205 10.5014 49.8743 
v -31.0205 10.5014 49.8743 
v -30.9042 10.6164 49.7592 
v -30.972 10.5016 49.9236 
v -30.8557 10.6166 49.8084 
v -31.0205 10.5983 49.971 
v -30.9042 10.7132 49.8558 
v -31.0205 10.5014 49.8743 
v -30.9042 10.6164 49.7592 

vn 0.582677 0.574803 -0.574803 
vn 0.582677 0.574803 -0.574803 
vn 0.582677 0.574803 -0.574803 
vn 0.582677 0.574803 -0.574803 
vn 0.700787 0 0.708661 
vn 0.700787 0 0.708661 
vn 0.700787 0 0.708661 
vn 0.700787 0 0.708661 
vn -0.582677 -0.574803 0.574803 
vn -0.582677 -0.574803 0.574803 
vn -0.582677 -0.574803 0.574803 
vn -0.582677 -0.574803 0.574803 
vn 0.409449 -0.818898 -0.401575 
vn 0.409449 -0.818898 -0.401575 
vn 0.409449 -0.818898 -0.401575 
vn 0.409449 -0.818898 -0.401575 
vn -0.811024 0.409449 -0.409449 
vn -0.811024 0.409449 -0.409449 
vn -0.811024 0.409449 -0.409449 
vn -0.811024 0.409449 -0.409449 

vt 6 -6.25 
vt 6 -6.25 
vt 6.00864 -6.26476 
vt 6 -6.26476 
vt 6.025 -6.25 
vt 6 -6.25 
vt 6.025 -6.26476 
vt 6 -6.26476 
vt 6.00864 -6.25 
vt 6.00864 -6.25 
vt 6.00864 -6.26476 
vt 6 -6.26476 
vt 6.025 -6.25 
vt 6 -6.25 
vt 6.025 -6.25864 
vt 6 -6.25864 
vt 6.025 -6.25 
vt 6 -6.25 
vt 6.025 -6.2671 
vt 6 -6.2671 

usemtl Wedge1Mtl

f 1/1/1 2/2/2 3/3/3 
f 3/3/3 2/2/2 4/4/4 
f 5/5/5 6/6/6 7/7/7 
f 7/7/7 6/6/6 8/8/8 
f 9/9/9 10/10/10 11/11/11 
f 11/11/11 10/10/10 12/12/12 
f 13/13/13 14/14/14 15/15/15 
f 15/15/15 14/14/14 16/16/16 
f 17/17/17 18/18/18 19/19/19 
f 19/19/19 18/18/18 20/20/20 

g Wedge2

v -31.0205 10.5983 49.971 
v -31.0205 10.5983 49.971 
v -30.9241 10.5019 49.9721 
v -30.972 10.5016 49.9236 
v -31.0205 10.5983 49.971 
v -30.9042 10.7132 49.8558 
v -30.972 10.5016 49.9236 
v -30.8557 10.6166 49.8084 
v -30.9042 10.7132 49.8558 
v -30.9042 10.7132 49.8558 
v -30.8557 10.6166 49.8084 
v -30.8078 10.6168 49.857 
v -30.8078 10.6168 49.857 
v -30.9241 10.5019 49.9721 
v -30.8557 10.6166 49.8084 
v -30.972 10.5016 49.9236 
v -30.9042 10.7132 49.8558 
v -31.0205 10.5983 49.971 
v -30.8078 10.6168 49.857 
v -30.9241 10.5019 49.9721 

vn -0.582677 -0.574803 0.574803 
vn -0.582677 -0.574803 0.574803 
vn -0.582677 -0.574803 0.574803 
vn -0.582677 -0.574803 0.574803 
vn -0.700787 0 -0.708661 
vn -0.700787 0 -0.708661 
vn -0.700787 0 -0.708661 
vn -0.700787 0 -0.708661 
vn 0.582677 0.574803 -0.574803 
vn 0.582677 0.574803 -0.574803 
vn 0.582677 0.574803 -0.574803 
vn 0.582677 0.574803 -0.574803 
vn 0.409449 -0.818898 -0.401575 
vn 0.409449 -0.818898 -0.401575 
vn 0.409449 -0.818898 -0.401575 
vn 0.409449 -0.818898 -0.401575 
vn 0.401575 0.409449 0.818898 
vn 0.401575 0.409449 0.818898 
vn 0.401575 0.409449 0.818898 
vn 0.401575 0.409449 0.818898 

vt 4 -1.5 
vt 4 -1.5 
vt 4.00853 -1.51476 
vt 4 -1.51476 
vt 4.025 -1.5 
vt 4 -1.5 
vt 4.025 -1.51476 
vt 4 -1.51476 
vt 4.00853 -1.5 
vt 4.00853 -1.5 
vt 4.00853 -1.51476 
vt 4 -1.51476 
vt 4.025 -1.5 
vt 4 -1.5 
vt 4.025 -1.50853 
vt 4 -1.50853 
vt 4.025 -1.5 
vt 4 -1.5 
vt 4.025 -1.51705 
vt 4 -1.51705 

usemtl Wedge1Mtl

f 21/21/21 22/22/22 23/23/23 
f 23/23/23 22/22/22 24/24/24 
f 25/25/25 26/26/26 27/27/27 
f 27/27/27 26/26/26 28/28/28 
f 29/29/29 30/30/30 31/31/31 
f 31/31/31 30/30/30 32/32/32 
f 33/33/33 34/34/34 35/35/35 
f 35/35/35 34/34/34 36/36/36 
f 37/37/37 38/38/38 39/39/39 
f 39/39/39 38/38/38 40/40/40 

g Part1

v -31.8626 10.5719 49.9974 
v -30.9042 10.5719 49.9974 
v -31.8626 10.7131 49.8558 
v -30.9042 10.7132 49.8558 
v -30.9042 10.4751 49.9007 
v -30.9042 10.5719 49.9974 
v -31.8626 10.475 49.9007 
v -31.8626 10.5719 49.9974 
v -30.9042 10.5719 49.9974 
v -30.9042 10.4751 49.9007 
v -30.9042 10.7132 49.8558 
v -30.9042 10.6164 49.7592 
v -30.9042 10.4751 49.9007 
v -31.8626 10.475 49.9007 
v -30.9042 10.6164 49.7592 
v -31.8626 10.6163 49.7592 
v -31.8626 10.6163 49.7592 
v -31.8626 10.7131 49.8558 
v -30.9042 10.6164 49.7592 
v -30.9042 10.7132 49.8558 
v -31.8626 10.475 49.9007 
v -31.8626 10.5719 49.9974 
v -31.8626 10.6163 49.7592 
v -31.8626 10.7131 49.8558 

vn 0 0.708661 0.708661 
vn 0 0.708661 0.708661 
vn 0 0.708661 0.708661 
vn 0 0.708661 0.708661 
vn 0 -0.708661 0.708661 
vn 0 -0.708661 0.708661 
vn 0 -0.708661 0.708661 
vn 0 -0.708661 0.708661 
vn 1 0 0 
vn 1 0 0 
vn 1 0 0 
vn 1 0 0 
vn 0 -0.708661 -0.708661 
vn 0 -0.708661 -0.708661 
vn 0 -0.708661 -0.708661 
vn 0 -0.708661 -0.708661 
vn 0 0.708661 -0.708661 
vn 0 0.708661 -0.708661 
vn 0 0.708661 -0.708661 
vn 0 0.708661 -0.708661 
vn -1 0 0 
vn -1 0 0 
vn -1 0 0 
vn -1 0 0 

vt 6.61979 -1.75 
vt 6.5 -1.75 
vt 6.61979 -1.775 
vt 6.5 -1.775 
vt 6.5171 -1.75 
vt 6.5 -1.75 
vt 6.5171 -1.86979 
vt 6.5 -1.86979 
vt 6.5171 -1.75 
vt 6.5 -1.75 
vt 6.5171 -1.775 
vt 6.5 -1.775 
vt 6.61979 -1.75 
vt 6.5 -1.75 
vt 6.61979 -1.775 
vt 6.5 -1.775 
vt 6.5171 -1.75 
vt 6.5 -1.75 
vt 6.5171 -1.86979 
vt 6.5 -1.86979 
vt 6.5171 -1.75 
vt 6.5 -1.75 
vt 6.5171 -1.775 
vt 6.5 -1.775 

usemtl Wedge1Mtl

f 41/41/41 42/42/42 43/43/43 
f 43/43/43 42/42/42 44/44/44 
f 45/45/45 46/46/46 47/47/47 
f 47/47/47 46/46/46 48/48/48 
f 49/49/49 50/50/50 51/51/51 
f 51/51/51 50/50/50 52/52/52 
f 53/53/53 54/54/54 55/55/55 
f 55/55/55 54/54/54 56/56/56 
f 57/57/57 58/58/58 59/59/59 
f 59/59/59 58/58/58 60/60/60 
f 61/61/61 62/62/62 63/63/63 
f 63/63/63 62/62/62 64/64/64 

g Union1

v -31.8626 10.6163 50.4518 
v -31.8626 10.6163 49.7591 
v -31.8626 1.00001 50.4518 
v -31.8626 1.00001 49.7591 
v -31.8626 10.6163 50.4518 
v -31.8626 1.00001 50.4518 
v -30.8078 10.6163 50.4518 
v -30.8078 1.00001 50.4518 
v -30.9042 1 49.7591 
v -30.9042 10.6163 49.7591 
v -30.8078 1.00001 49.8555 
v -30.8078 10.6163 49.8555 
v -31.8626 10.6163 50.4518 
v -30.8078 10.6163 50.4518 
v -31.8626 10.6163 49.7591 
v -30.8078 10.6163 49.8555 
v -30.9042 10.6163 49.7591 
v -31.8626 10.6163 49.7591 
v -30.9042 10.6163 49.7591 
v -31.8626 1.00001 49.7591 
v -30.9042 1 49.7591 
v -30.8078 1.00001 50.4518 
v -31.8626 1.00001 50.4518 
v -30.8078 1.00001 49.8555 
v -31.8626 1.00001 49.7591 
v -30.9042 1 49.7591 
v -30.8078 1.00001 49.8555 
v -30.8078 10.6163 49.8555 
v -30.8078 1.00001 50.4518 
v -30.8078 10.6163 50.4518 

vn -1 0 0 
vn -1 0 0 
vn -1 0 0 
vn -1 0 0 
vn 0 0 1 
vn 0 0 1 
vn 0 0 1 
vn 0 0 1 
vn 0.708661 0 -0.708661 
vn 0.708661 0 -0.708661 
vn 0.708661 0 -0.708661 
vn 0.708661 0 -0.708661 
vn 0 1 0 
vn 0 1 0 
vn 0 1 0 
vn 0 1 0 
vn 0 1 0 
vn 0 0 -1 
vn 0 0 -1 
vn 0 0 -1 
vn 0 0 -1 
vn 0 -1 0 
vn 0 -1 0 
vn 0 -1 0 
vn 0 -1 0 
vn 0 -1 0 
vn 1 0 0 
vn 1 0 0 
vn 1 0 0 
vn 1 0 0 

vt 35.9567 0.398981 
vt 36.0433 0.398981 
vt 35.9567 1.60102 
vt 36.0433 1.60102 
vt 36.0659 0.398981 
vt 36.0659 1.60102 
vt 35.9341 0.398981 
vt 35.9341 1.60102 
vt 36.0539 1.60102 
vt 36.0539 0.398982 
vt 36.0659 1.60102 
vt 36.0659 0.398981 
vt 35.9341 0.956709 
vt 36.0659 0.956709 
vt 35.9341 1.04329 
vt 36.0659 1.03124 
vt 36.0539 1.04329 
vt 35.9341 0.398981 
vt 36.0539 0.398982 
vt 35.9341 1.60102 
vt 36.0539 1.60102 
vt 35.9341 0.956709 
vt 36.0659 0.956709 
vt 35.9341 1.03124 
vt 36.0659 1.04329 
vt 35.9461 1.04329 
vt 35.9688 1.60102 
vt 35.9688 0.398981 
vt 36.0433 1.60102 
vt 36.0433 0.398981 

usemtl Wedge1Mtl

f 65/65/65 66/66/66 67/67/67 
f 66/66/66 68/68/68 67/67/67 
f 69/69/69 70/70/70 71/71/71 
f 70/70/70 72/72/72 71/71/71 
f 73/73/73 74/74/74 75/75/75 
f 74/74/74 76/76/76 75/75/75 
f 77/77/77 78/78/78 79/79/79 
f 78/78/78 80/80/80 79/79/79 
f 80/80/80 81/81/81 79/79/79 
f 82/82/82 83/83/83 84/84/84 
f 83/83/83 85/85/85 84/84/84 
f 86/86/86 87/87/87 88/88/88 
f 87/87/87 89/89/89 88/88/88 
f 89/89/89 90/90/90 88/88/88 
f 91/91/91 92/92/92 93/93/93 
f 92/92/92 94/94/94 93/93/93 

g Part2

v -30.9494 10.2831 50.4188 
v -30.9494 10.2831 61.6188 
v -30.9494 1 50.4188 
v -30.9494 1 61.6188 
v -31.6994 10.2831 61.6188 
v -30.9494 10.2831 61.6188 
v -31.6994 10.2831 50.4188 
v -30.9494 10.2831 50.4188 
v -30.9494 10.2831 61.6188 
v -31.6994 10.2831 61.6188 
v -30.9494 1 61.6188 
v -31.6994 1 61.6188 
v -31.6994 10.2831 61.6188 
v -31.6994 10.2831 50.4188 
v -31.6994 1 61.6188 
v -31.6994 1 50.4188 
v -31.6994 1 50.4188 
v -30.9494 1 50.4188 
v -31.6994 1 61.6188 
v -30.9494 1 61.6188 
v -31.6994 10.2831 50.4188 
v -30.9494 10.2831 50.4188 
v -31.6994 1 50.4188 
v -30.9494 1 50.4188 

vn 1 0 0 
vn 1 0 0 
vn 1 0 0 
vn 1 0 0 
vn 0 1 0 
vn 0 1 0 
vn 0 1 0 
vn 0 1 0 
vn 0 0 1 
vn 0 0 1 
vn 0 0 1 
vn 0 0 1 
vn -1 0 0 
vn -1 0 0 
vn -1 0 0 
vn -1 0 0 
vn 0 -1 0 
vn 0 -1 0 
vn 0 -1 0 
vn 0 -1 0 
vn 0 0 -1 
vn 0 0 -1 
vn 0 0 -1 
vn 0 0 -1 

vt 7.65 -0.25 
vt 6.25 -0.25 
vt 7.65 -1.41038 
vt 6.25 -1.41038 
vt 6.34375 -0.25 
vt 6.25 -0.25 
vt 6.34375 -1.65 
vt 6.25 -1.65 
vt 6.34375 -0.25 
vt 6.25 -0.25 
vt 6.34375 -1.41038 
vt 6.25 -1.41038 
vt 7.65 -0.25 
vt 6.25 -0.25 
vt 7.65 -1.41038 
vt 6.25 -1.41038 
vt 6.34375 -0.25 
vt 6.25 -0.25 
vt 6.34375 -1.65 
vt 6.25 -1.65 
vt 6.34375 -0.25 
vt 6.25 -0.25 
vt 6.34375 -1.41038 
vt 6.25 -1.41038 

usemtl Part2Mtl

f 95/95/95 96/96/96 97/97/97 
f 97/97/97 96/96/96 98/98/98 
f 99/99/99 100/100/100 101/101/101 
f 101/101/101 100/100/100 102/102/102 
f 103/103/103 104/104/104 105/105/105 
f 105/105/105 104/104/104 106/106/106 
f 107/107/107 108/108/108 109/109/109 
f 109/109/109 108/108/108 110/110/110 
f 111/111/111 112/112/112 113/113/113 
f 113/113/113 112/112/112 114/114/114 
f 115/115/115 116/116/116 117/117/117 
f 117/117/117 116/116/116 118/118/118 

g Union2

v -31.8626 10.0205 61.7594 
v -31.8626 10.7132 61.7594 
v -31.8626 10.0205 49.8558 
v -31.8626 10.7132 49.8558 
v -31.8626 10.0205 61.7594 
v -31.8626 10.0205 49.8558 
v -30.8078 10.0205 61.7594 
v -30.8078 10.0205 49.8558 
v -30.9042 10.7132 49.8558 
v -30.9042 10.7132 61.7594 
v -30.8078 10.6168 49.8558 
v -30.8078 10.6168 61.7594 
v -31.8626 10.0205 61.7594 
v -30.8078 10.0205 61.7594 
v -31.8626 10.7132 61.7594 
v -30.8078 10.6168 61.7594 
v -30.9042 10.7132 61.7594 
v -31.8626 10.7132 61.7594 
v -30.9042 10.7132 61.7594 
v -31.8626 10.7132 49.8558 
v -30.9042 10.7132 49.8558 
v -30.8078 10.0205 49.8558 
v -31.8626 10.0205 49.8558 
v -30.8078 10.6168 49.8558 
v -31.8626 10.7132 49.8558 
v -30.9042 10.7132 49.8558 
v -30.8078 10.6168 49.8558 
v -30.8078 10.6168 61.7594 
v -30.8078 10.0205 49.8558 
v -30.8078 10.0205 61.7594 

vn -1 0 0 
vn -1 0 0 
vn -1 0 0 
vn -1 0 0 
vn 0 -1 0 
vn 0 -1 0 
vn 0 -1 0 
vn 0 -1 0 
vn 0.708661 0.708661 0 
vn 0.708661 0.708661 0 
vn 0.708661 0.708661 0 
vn 0.708661 0.708661 0 
vn 0 0 1 
vn 0 0 1 
vn 0 0 1 
vn 0 0 1 
vn 0 0 1 
vn 0 1 0 
vn 0 1 0 
vn 0 1 0 
vn 0 1 0 
vn 0 0 -1 
vn 0 0 -1 
vn 0 0 -1 
vn 0 0 -1 
vn 0 0 -1 
vn 1 0 0 
vn 1 0 0 
vn 1 0 0 
vn 1 0 0 

vt 59.9567 0.256026 
vt 60.0433 0.256026 
vt 59.9567 1.74397 
vt 60.0433 1.74397 
vt 60.0659 0.256026 
vt 60.0659 1.74397 
vt 59.9341 0.256026 
vt 59.9341 1.74397 
vt 60.0539 1.74397 
vt 60.0539 0.256026 
vt 60.0659 1.74397 
vt 60.0659 0.256026 
vt 59.9341 0.956709 
vt 60.0659 0.956709 
vt 59.9341 1.04329 
vt 60.0659 1.03124 
vt 60.0539 1.04329 
vt 59.9341 0.256026 
vt 60.0539 0.256026 
vt 59.9341 1.74397 
vt 60.0539 1.74397 
vt 59.9341 0.956709 
vt 60.0659 0.956709 
vt 59.9341 1.03124 
vt 60.0659 1.04329 
vt 59.9461 1.04329 
vt 59.9688 1.74397 
vt 59.9688 0.256026 
vt 60.0433 1.74397 
vt 60.0433 0.256026 

usemtl Wedge1Mtl

f 119/119/119 120/120/120 121/121/121 
f 120/120/120 122/122/122 121/121/121 
f 123/123/123 124/124/124 125/125/125 
f 124/124/124 126/126/126 125/125/125 
f 127/127/127 128/128/128 129/129/129 
f 128/128/128 130/130/130 129/129/129 
f 131/131/131 132/132/132 133/133/133 
f 132/132/132 134/134/134 133/133/133 
f 134/134/134 135/135/135 133/133/133 
f 136/136/136 137/137/137 138/138/138 
f 137/137/137 139/139/139 138/138/138 
f 140/140/140 141/141/141 142/142/142 
f 141/141/141 143/143/143 142/142/142 
f 143/143/143 144/144/144 142/142/142 
f 145/145/145 146/146/146 147/147/147 
f 146/146/146 148/148/148 147/147/147 

g Union3

v -31.8626 1 61.1628 
v -31.8626 1 61.8555 
v -31.8626 10.6163 61.1628 
v -31.8626 10.6163 61.8555 
v -31.8626 1 61.1628 
v -31.8626 10.6163 61.1628 
v -30.8078 1 61.1628 
v -30.8078 10.6163 61.1628 
v -30.9042 10.6163 61.8555 
v -30.9042 1.00001 61.8555 
v -30.8078 10.6163 61.7591 
v -30.8078 1 61.7591 
v -31.8626 1 61.1628 
v -30.8078 1 61.1628 
v -31.8626 1 61.8555 
v -30.8078 1 61.7591 
v -30.9042 1.00001 61.8555 
v -31.8626 1 61.8555 
v -30.9042 1.00001 61.8555 
v -31.8626 10.6163 61.8555 
v -30.9042 10.6163 61.8555 
v -30.8078 10.6163 61.1628 
v -31.8626 10.6163 61.1628 
v -30.8078 10.6163 61.7591 
v -31.8626 10.6163 61.8555 
v -30.9042 10.6163 61.8555 
v -30.8078 10.6163 61.7591 
v -30.8078 1 61.7591 
v -30.8078 10.6163 61.1628 
v -30.8078 1 61.1628 

vn -1 0 0 
vn -1 0 0 
vn -1 0 0 
vn -1 0 0 
vn 0 0 -1 
vn 0 0 -1 
vn 0 0 -1 
vn 0 0 -1 
vn 0.708661 0 0.708661 
vn 0.708661 0 0.708661 
vn 0.708661 0 0.708661 
vn 0.708661 0 0.708661 
vn 0 -1 0 
vn 0 -1 0 
vn 0 -1 0 
vn 0 -1 0 
vn 0 -1 0 
vn 0 0 1 
vn 0 0 1 
vn 0 0 1 
vn 0 0 1 
vn 0 1 0 
vn 0 1 0 
vn 0 1 0 
vn 0 1 0 
vn 0 1 0 
vn 1 0 0 
vn 1 0 0 
vn 1 0 0 
vn 1 0 0 

vt 37.9567 -59.601 
vt 38.0433 -59.601 
vt 37.9567 -58.399 
vt 38.0433 -58.399 
vt 38.0659 -59.601 
vt 38.0659 -58.399 
vt 37.9341 -59.601 
vt 37.9341 -58.399 
vt 38.0539 -58.399 
vt 38.0539 -59.601 
vt 38.0659 -58.399 
vt 38.0659 -59.601 
vt 37.9341 -59.0433 
vt 38.0659 -59.0433 
vt 37.9341 -58.9567 
vt 38.0659 -58.9688 
vt 38.0539 -58.9567 
vt 37.9341 -59.601 
vt 38.0539 -59.601 
vt 37.9341 -58.399 
vt 38.0539 -58.399 
vt 37.9341 -59.0433 
vt 38.0659 -59.0433 
vt 37.9341 -58.9688 
vt 38.0659 -58.9567 
vt 37.9461 -58.9567 
vt 37.9688 -58.399 
vt 37.9688 -59.601 
vt 38.0433 -58.399 
vt 38.0433 -59.601 

usemtl Wedge1Mtl

f 149/149/149 150/150/150 151/151/151 
f 150/150/150 152/152/152 151/151/151 
f 153/153/153 154/154/154 155/155/155 
f 154/154/154 156/156/156 155/155/155 
f 157/157/157 158/158/158 159/159/159 
f 158/158/158 160/160/160 159/159/159 
f 161/161/161 162/162/162 163/163/163 
f 162/162/162 164/164/164 163/163/163 
f 164/164/164 165/165/165 163/163/163 
f 166/166/166 167/167/167 168/168/168 
f 167/167/167 169/169/169 168/168/168 
f 170/170/170 171/171/171 172/172/172 
f 171/171/171 173/173/173 172/172/172 
f 173/173/173 174/174/174 172/172/172 
f 175/175/175 176/176/176 177/177/177 
f 176/176/176 178/178/178 177/177/177 

g Wedge3

v -31.0207 10.5019 61.74 
v -31.0207 10.5019 61.74 
v -30.9243 10.5009 61.6436 
v -30.9725 10.5498 61.6438 
v -31.0207 10.5019 61.74 
v -30.9042 10.6163 61.8555 
v -30.9725 10.5498 61.6438 
v -30.8559 10.6642 61.7592 
v -30.9042 10.6163 61.8555 
v -30.9042 10.6163 61.8555 
v -30.8559 10.6642 61.7592 
v -30.8078 10.6154 61.759 
v -30.8078 10.6154 61.759 
v -30.9243 10.5009 61.6436 
v -30.8559 10.6642 61.7592 
v -30.9725 10.5498 61.6438 
v -30.9042 10.6163 61.8555 
v -31.0207 10.5019 61.74 
v -30.8078 10.6154 61.759 
v -30.9243 10.5009 61.6436 

vn -0.582677 -0.574803 -0.574803 
vn -0.582677 -0.574803 -0.574803 
vn -0.582677 -0.574803 -0.574803 
vn -0.582677 -0.574803 -0.574803 
vn -0.700787 0.708661 0 
vn -0.700787 0.708661 0 
vn -0.700787 0.708661 0 
vn -0.700787 0.708661 0 
vn 0.582677 0.574803 0.574803 
vn 0.582677 0.574803 0.574803 
vn 0.582677 0.574803 0.574803 
vn 0.582677 0.574803 0.574803 
vn 0.409449 0.409449 -0.818898 
vn 0.409449 0.409449 -0.818898 
vn 0.409449 0.409449 -0.818898 
vn 0.409449 0.409449 -0.818898 
vn 0.401575 -0.818898 0.409449 
vn 0.401575 -0.818898 0.409449 
vn 0.401575 -0.818898 0.409449 
vn 0.401575 -0.818898 0.409449 

vt 5.75 -4.25 
vt 5.75 -4.25 
vt 5.75858 -4.26473 
vt 5.75 -4.26473 
vt 5.775 -4.25 
vt 5.75 -4.25 
vt 5.775 -4.26473 
vt 5.75 -4.26473 
vt 5.75858 -4.25 
vt 5.75858 -4.25 
vt 5.75858 -4.26473 
vt 5.75 -4.26473 
vt 5.775 -4.25 
vt 5.75 -4.25 
vt 5.775 -4.25858 
vt 5.75 -4.25858 
vt 5.775 -4.25 
vt 5.75 -4.25 
vt 5.775 -4.26705 
vt 5.75 -4.26705 

usemtl Wedge1Mtl

f 179/179/179 180/180/180 181/181/181 
f 181/181/181 180/180/180 182/182/182 
f 183/183/183 184/184/184 185/185/185 
f 185/185/185 184/184/184 186/186/186 
f 187/187/187 188/188/188 189/189/189 
f 189/189/189 188/188/188 190/190/190 
f 191/191/191 192/192/192 193/193/193 
f 193/193/193 192/192/192 194/194/194 
f 195/195/195 196/196/196 197/197/197 
f 197/197/197 196/196/196 198/198/198 

g Wedge4

v -30.9042 10.6163 61.8555 
v -30.9042 10.6163 61.8555 
v -30.9042 10.7132 61.7594 
v -30.8559 10.6642 61.7592 
v -30.9042 10.6163 61.8555 
v -31.0207 10.5019 61.74 
v -30.8559 10.6642 61.7592 
v -30.9725 10.5498 61.6438 
v -31.0207 10.5019 61.74 
v -31.0207 10.5019 61.74 
v -30.9725 10.5498 61.6438 
v -31.0208 10.5988 61.644 
v -31.0208 10.5988 61.644 
v -30.9042 10.7132 61.7594 
v -30.9725 10.5498 61.6438 
v -30.8559 10.6642 61.7592 
v -31.0207 10.5019 61.74 
v -30.9042 10.6163 61.8555 
v -31.0208 10.5988 61.644 
v -30.9042 10.7132 61.7594 

vn 0.582677 0.574803 0.574803 
vn 0.582677 0.574803 0.574803 
vn 0.582677 0.574803 0.574803 
vn 0.582677 0.574803 0.574803 
vn 0.700787 -0.708661 0 
vn 0.700787 -0.708661 0 
vn 0.700787 -0.708661 0 
vn 0.700787 -0.708661 0 
vn -0.582677 -0.574803 -0.574803 
vn -0.582677 -0.574803 -0.574803 
vn -0.582677 -0.574803 -0.574803 
vn -0.582677 -0.574803 -0.574803 
vn 0.409449 0.409449 -0.818898 
vn 0.409449 0.409449 -0.818898 
vn 0.409449 0.409449 -0.818898 
vn 0.409449 0.409449 -0.818898 
vn -0.811024 0.409449 0.417323 
vn -0.811024 0.409449 0.417323 
vn -0.811024 0.409449 0.417323 
vn -0.811024 0.409449 0.417323 

vt 4.25 -0.75 
vt 4.25 -0.75 
vt 4.2586 -0.764731 
vt 4.25 -0.764731 
vt 4.275 -0.75 
vt 4.25 -0.75 
vt 4.275 -0.764731 
vt 4.25 -0.764731 
vt 4.2586 -0.75 
vt 4.2586 -0.75 
vt 4.2586 -0.764731 
vt 4.25 -0.764731 
vt 4.275 -0.75 
vt 4.25 -0.75 
vt 4.275 -0.758597 
vt 4.25 -0.758597 
vt 4.275 -0.75 
vt 4.25 -0.75 
vt 4.275 -0.767056 
vt 4.25 -0.767056 

usemtl Wedge1Mtl

f 199/199/199 200/200/200 201/201/201 
f 201/201/201 200/200/200 202/202/202 
f 203/203/203 204/204/204 205/205/205 
f 205/205/205 204/204/204 206/206/206 
f 207/207/207 208/208/208 209/209/209 
f 209/209/209 208/208/208 210/210/210 
f 211/211/211 212/212/212 213/213/213 
f 213/213/213 212/212/212 214/214/214 
f 215/215/215 216/216/216 217/217/217 
f 217/217/217 216/216/216 218/218/218 

g Part3

v -30.9042 10.5724 61.6174 
v -31.8626 10.5723 61.6174 
v -30.9042 10.7132 61.7594 
v -31.8626 10.7131 61.7594 
v -31.8626 10.4754 61.7134 
v -31.8626 10.5723 61.6174 
v -30.9042 10.4755 61.7134 
v -30.9042 10.5724 61.6174 
v -31.8626 10.5723 61.6174 
v -31.8626 10.4754 61.7134 
v -31.8626 10.7131 61.7594 
v -31.8626 10.6162 61.8555 
v -31.8626 10.4754 61.7134 
v -30.9042 10.4755 61.7134 
v -31.8626 10.6162 61.8555 
v -30.9042 10.6163 61.8555 
v -30.9042 10.6163 61.8555 
v -30.9042 10.7132 61.7594 
v -31.8626 10.6162 61.8555 
v -31.8626 10.7131 61.7594 
v -30.9042 10.4755 61.7134 
v -30.9042 10.5724 61.6174 
v -30.9042 10.6163 61.8555 
v -30.9042 10.7132 61.7594 

vn 0 0.708661 -0.700787 
vn 0 0.708661 -0.700787 
vn 0 0.708661 -0.700787 
vn 0 0.708661 -0.700787 
vn 0 -0.700787 -0.708661 
vn 0 -0.700787 -0.708661 
vn 0 -0.700787 -0.708661 
vn 0 -0.700787 -0.708661 
vn -1 0 0 
vn -1 0 0 
vn -1 0 0 
vn -1 0 0 
vn 0 -0.708661 0.700787 
vn 0 -0.708661 0.700787 
vn 0 -0.708661 0.700787 
vn 0 -0.708661 0.700787 
vn 0 0.700787 0.708661 
vn 0 0.700787 0.708661 
vn 0 0.700787 0.708661 
vn 0 0.700787 0.708661 
vn 1 0 0 
vn 1 0 0 
vn 1 0 0 
vn 1 0 0 

vt 3.61979 0.5 
vt 3.5 0.5 
vt 3.61979 0.475 
vt 3.5 0.475 
vt 3.51706 0.5 
vt 3.5 0.5 
vt 3.51706 0.380206 
vt 3.5 0.380206 
vt 3.51706 0.5 
vt 3.5 0.5 
vt 3.51706 0.475 
vt 3.5 0.475 
vt 3.61979 0.5 
vt 3.5 0.5 
vt 3.61979 0.475 
vt 3.5 0.475 
vt 3.51706 0.5 
vt 3.5 0.5 
vt 3.51706 0.380206 
vt 3.5 0.380206 
vt 3.51706 0.5 
vt 3.5 0.5 
vt 3.51706 0.475 
vt 3.5 0.475 

usemtl Wedge1Mtl

f 219/219/219 220/220/220 221/221/221 
f 221/221/221 220/220/220 222/222/222 
f 223/223/223 224/224/224 225/225/225 
f 225/225/225 224/224/224 226/226/226 
f 227/227/227 228/228/228 229/229/229 
f 229/229/229 228/228/228 230/230/230 
f 231/231/231 232/232/232 233/233/233 
f 233/233/233 232/232/232 234/234/234 
f 235/235/235 236/236/236 237/237/237 
f 237/237/237 236/236/236 238/238/238 
f 239/239/239 240/240/240 241/241/241 
f 241/241/241 240/240/240 242/242/242 

