# This file is brought to you by Roblox Corporation
# Generated by Roblox Studio

mtllib ground.mtl

g Ground1

v 95.9375 0.542197 -89.4252 
v 95.9375 0.542197 52.4708 
v 95.9375 -0.483632 -89.4252 
v 95.9375 -0.483632 52.4708 
v -38.9676 0.542197 52.4708 
v 95.9375 0.542197 52.4708 
v -38.9676 0.542197 -89.4252 
v 95.9375 0.542197 -89.4252 
v 95.9375 0.542197 52.4708 
v -38.9676 0.542197 52.4708 
v 95.9375 -0.483632 52.4708 
v -38.9676 -0.483632 52.4708 
v -38.9676 0.542197 52.4708 
v -38.9676 0.542197 -89.4252 
v -38.9676 -0.483632 52.4708 
v -38.9676 -0.483632 -89.4252 
v -38.9676 -0.483632 -89.4252 
v 95.9375 -0.483632 -89.4252 
v -38.9676 -0.483632 52.4708 
v 95.9375 -0.483632 52.4708 
v -38.9676 0.542197 -89.4252 
v 95.9375 0.542197 -89.4252 
v -38.9676 -0.483632 -89.4252 
v 95.9375 -0.483632 -89.4252 

vn 1 0 0 
vn 1 0 0 
vn 1 0 0 
vn 1 0 0 
vn 0 1 0 
vn 0 1 0 
vn 0 1 0 
vn 0 1 0 
vn 0 0 1 
vn 0 0 1 
vn 0 0 1 
vn 0 0 1 
vn -1 0 0 
vn -1 0 0 
vn -1 0 0 
vn -1 0 0 
vn 0 -1 0 
vn 0 -1 0 
vn 0 -1 0 
vn 0 -1 0 
vn 0 0 -1 
vn 0 0 -1 
vn 0 0 -1 
vn 0 0 -1 

vt 24.487 -5 
vt 6.75 -5 
vt 24.487 -5.12823 
vt 6.75 -5.12823 
vt 23.6131 -5 
vt 6.75 -5 
vt 23.6131 -22.737 
vt 6.75 -22.737 
vt 23.6131 -5 
vt 6.75 -5 
vt 23.6131 -5.12823 
vt 6.75 -5.12823 
vt 24.487 -5 
vt 6.75 -5 
vt 24.487 -5.12823 
vt 6.75 -5.12823 
vt 23.6131 -5 
vt 6.75 -5 
vt 23.6131 -22.737 
vt 6.75 -22.737 
vt 23.6131 -5 
vt 6.75 -5 
vt 23.6131 -5.12823 
vt 6.75 -5.12823 

usemtl Ground1Mtl

f 1/1/1 2/2/2 3/3/3 
f 3/3/3 2/2/2 4/4/4 
f 5/5/5 6/6/6 7/7/7 
f 7/7/7 6/6/6 8/8/8 
f 9/9/9 10/10/10 11/11/11 
f 11/11/11 10/10/10 12/12/12 
f 13/13/13 14/14/14 15/15/15 
f 15/15/15 14/14/14 16/16/16 
f 17/17/17 18/18/18 19/19/19 
f 19/19/19 18/18/18 20/20/20 
f 21/21/21 22/22/22 23/23/23 
f 23/23/23 22/22/22 24/24/24 

