# This file is brought to you by Roblox Corporation
# Generated by Roblox Studio

mtllib ground.mtl

g Ground1

v 97.106 2.14635 -144.575 
v 97.106 2.14635 -1.01517 
v 97.106 1.23839 -144.575 
v 97.106 1.23839 -1.01517 
v -53.0334 2.14635 -1.01517 
v 97.106 2.14635 -1.01517 
v -53.0334 2.14635 -144.575 
v 97.106 2.14635 -144.575 
v 97.106 2.14635 -1.01517 
v -53.0334 2.14635 -1.01517 
v 97.106 1.23839 -1.01517 
v -53.0334 1.23839 -1.01517 
v -53.0334 2.14635 -1.01517 
v -53.0334 2.14635 -144.575 
v -53.0334 1.23839 -1.01517 
v -53.0334 1.23839 -144.575 
v -53.0334 1.23839 -144.575 
v 97.106 1.23839 -144.575 
v -53.0334 1.23839 -1.01517 
v 97.106 1.23839 -1.01517 
v -53.0334 2.14635 -144.575 
v 97.106 2.14635 -144.575 
v -53.0334 1.23839 -144.575 
v 97.106 1.23839 -144.575 

vn 1 0 0 
vn 1 0 0 
vn 1 0 0 
vn 1 0 0 
vn 0 1 0 
vn 0 1 0 
vn 0 1 0 
vn 0 1 0 
vn 0 0 1 
vn 0 0 1 
vn 0 0 1 
vn 0 0 1 
vn -1 0 0 
vn -1 0 0 
vn -1 0 0 
vn -1 0 0 
vn 0 -1 0 
vn 0 -1 0 
vn 0 -1 0 
vn 0 -1 0 
vn 0 0 -1 
vn 0 0 -1 
vn 0 0 -1 
vn 0 0 -1 

vt 19.3199 -3.75 
vt 1.375 -3.75 
vt 19.3199 -3.86349 
vt 1.375 -3.86349 
vt 20.1424 -3.75 
vt 1.375 -3.75 
vt 20.1424 -21.6949 
vt 1.375 -21.6949 
vt 20.1424 -3.75 
vt 1.375 -3.75 
vt 20.1424 -3.86349 
vt 1.375 -3.86349 
vt 19.3199 -3.75 
vt 1.375 -3.75 
vt 19.3199 -3.86349 
vt 1.375 -3.86349 
vt 20.1424 -3.75 
vt 1.375 -3.75 
vt 20.1424 -21.6949 
vt 1.375 -21.6949 
vt 20.1424 -3.75 
vt 1.375 -3.75 
vt 20.1424 -3.86349 
vt 1.375 -3.86349 

usemtl Ground1Mtl

f 1/1/1 2/2/2 3/3/3 
f 3/3/3 2/2/2 4/4/4 
f 5/5/5 6/6/6 7/7/7 
f 7/7/7 6/6/6 8/8/8 
f 9/9/9 10/10/10 11/11/11 
f 11/11/11 10/10/10 12/12/12 
f 13/13/13 14/14/14 15/15/15 
f 15/15/15 14/14/14 16/16/16 
f 17/17/17 18/18/18 19/19/19 
f 19/19/19 18/18/18 20/20/20 
f 21/21/21 22/22/22 23/23/23 
f 23/23/23 22/22/22 24/24/24 

