# This file is brought to you by Roblox Corporation
# Generated by Roblox Studio

mtllib Inner_left_wall.mtl

g Part1

v -35.346 5.08778 -43.8703 
v -35.346 5.08778 -135.105 
v -35.346 4.70866 -43.8703 
v -35.346 4.70866 -135.105 
v -35.0748 5.08778 -135.105 
v -35.346 5.08778 -135.105 
v -35.0748 5.08778 -43.8703 
v -35.346 5.08778 -43.8703 
v -35.346 5.08778 -135.105 
v -35.0748 5.08778 -135.105 
v -35.346 4.70866 -135.105 
v -35.0748 4.70866 -135.105 
v -35.0748 5.08778 -135.105 
v -35.0748 5.08778 -43.8703 
v -35.0748 4.70866 -135.105 
v -35.0748 4.70866 -43.8703 
v -35.0748 4.70866 -43.8703 
v -35.346 4.70866 -43.8703 
v -35.0748 4.70866 -135.105 
v -35.346 4.70866 -135.105 
v -35.0748 5.08778 -43.8703 
v -35.346 5.08778 -43.8703 
v -35.0748 4.70866 -43.8703 
v -35.346 4.70866 -43.8703 

vn -1 0 0 
vn -1 0 0 
vn -1 0 0 
vn -1 0 0 
vn 0 1 0 
vn 0 1 0 
vn 0 1 0 
vn 0 1 0 
vn 0 0 -1 
vn 0 0 -1 
vn 0 0 -1 
vn 0 0 -1 
vn 1 0 0 
vn 1 0 0 
vn 1 0 0 
vn 1 0 0 
vn 0 -1 0 
vn 0 -1 0 
vn 0 -1 0 
vn 0 -1 0 
vn 0 0 1 
vn 0 0 1 
vn 0 0 1 
vn 0 0 1 

vt 5.68313 3.19203 
vt -5.7212 3.19203 
vt 5.68313 3.14464 
vt -5.7212 3.14464 
vt -5.68729 3.19203 
vt -5.7212 3.19203 
vt -5.68729 -8.21229 
vt -5.7212 -8.21229 
vt -5.68729 3.19203 
vt -5.7212 3.19203 
vt -5.68729 3.14464 
vt -5.7212 3.14464 
vt 5.68313 3.19203 
vt -5.7212 3.19203 
vt 5.68313 3.14464 
vt -5.7212 3.14464 
vt -5.68729 3.19203 
vt -5.7212 3.19203 
vt -5.68729 -8.21229 
vt -5.7212 -8.21229 
vt -5.68729 3.19203 
vt -5.7212 3.19203 
vt -5.68729 3.14464 
vt -5.7212 3.14464 

usemtl Part1Mtl

f 1/1/1 2/2/2 3/3/3 
f 3/3/3 2/2/2 4/4/4 
f 5/5/5 6/6/6 7/7/7 
f 7/7/7 6/6/6 8/8/8 
f 9/9/9 10/10/10 11/11/11 
f 11/11/11 10/10/10 12/12/12 
f 13/13/13 14/14/14 15/15/15 
f 15/15/15 14/14/14 16/16/16 
f 17/17/17 18/18/18 19/19/19 
f 19/19/19 18/18/18 20/20/20 
f 21/21/21 22/22/22 23/23/23 
f 23/23/23 22/22/22 24/24/24 

g Part2

v -35.1977 2.99451 -43.6513 
v -35.1977 2.99451 -136.011 
v -35.1977 2.05766 -43.6513 
v -35.1977 2.05766 -136.011 
v -35.0923 2.99451 -136.011 
v -35.1977 2.99451 -136.011 
v -35.0923 2.99451 -43.6513 
v -35.1977 2.99451 -43.6513 
v -35.1977 2.99451 -136.011 
v -35.0923 2.99451 -136.011 
v -35.1977 2.05766 -136.011 
v -35.0923 2.05766 -136.011 
v -35.0923 2.99451 -136.011 
v -35.0923 2.99451 -43.6513 
v -35.0923 2.05766 -136.011 
v -35.0923 2.05766 -43.6513 
v -35.0923 2.05766 -43.6513 
v -35.1977 2.05766 -43.6513 
v -35.0923 2.05766 -136.011 
v -35.1977 2.05766 -136.011 
v -35.0923 2.99451 -43.6513 
v -35.1977 2.99451 -43.6513 
v -35.0923 2.05766 -43.6513 
v -35.1977 2.05766 -43.6513 

vn -1 0 0 
vn -1 0 0 
vn -1 0 0 
vn -1 0 0 
vn 0 1 0 
vn 0 1 0 
vn 0 1 0 
vn 0 1 0 
vn 0 0 -1 
vn 0 0 -1 
vn 0 0 -1 
vn 0 0 -1 
vn 1 0 0 
vn 1 0 0 
vn 1 0 0 
vn 1 0 0 
vn 0 -1 0 
vn 0 -1 0 
vn 0 -1 0 
vn 0 -1 0 
vn 0 0 1 
vn 0 0 1 
vn 0 0 1 
vn 0 0 1 

vt 15.0191 4.34481 
vt 3.4742 4.34481 
vt 15.0191 4.22771 
vt 3.4742 4.22771 
vt 3.48737 4.34481 
vt 3.4742 4.34481 
vt 3.48737 -7.2001 
vt 3.4742 -7.2001 
vt 3.48737 4.34481 
vt 3.4742 4.34481 
vt 3.48737 4.22771 
vt 3.4742 4.22771 
vt 15.0191 4.34481 
vt 3.4742 4.34481 
vt 15.0191 4.22771 
vt 3.4742 4.22771 
vt 3.48737 4.34481 
vt 3.4742 4.34481 
vt 3.48737 -7.2001 
vt 3.4742 -7.2001 
vt 3.48737 4.34481 
vt 3.4742 4.34481 
vt 3.48737 4.22771 
vt 3.4742 4.22771 

usemtl Part2Mtl

f 25/25/25 26/26/26 27/27/27 
f 27/27/27 26/26/26 28/28/28 
f 29/29/29 30/30/30 31/31/31 
f 31/31/31 30/30/30 32/32/32 
f 33/33/33 34/34/34 35/35/35 
f 35/35/35 34/34/34 36/36/36 
f 37/37/37 38/38/38 39/39/39 
f 39/39/39 38/38/38 40/40/40 
f 41/41/41 42/42/42 43/43/43 
f 43/43/43 42/42/42 44/44/44 
f 45/45/45 46/46/46 47/47/47 
f 47/47/47 46/46/46 48/48/48 

g Part3

v -35.5543 5.26699 -43.7725 
v -35.5543 5.26699 -135.342 
v -35.5543 4.47903 -43.7725 
v -35.5543 4.47903 -135.342 
v -35.3079 5.26699 -135.342 
v -35.5543 5.26699 -135.342 
v -35.3079 5.26699 -43.7725 
v -35.5543 5.26699 -43.7725 
v -35.5543 5.26699 -135.342 
v -35.3079 5.26699 -135.342 
v -35.5543 4.47903 -135.342 
v -35.3079 4.47903 -135.342 
v -35.3079 5.26699 -135.342 
v -35.3079 5.26699 -43.7725 
v -35.3079 4.47903 -135.342 
v -35.3079 4.47903 -43.7725 
v -35.3079 4.47903 -43.7725 
v -35.5543 4.47903 -43.7725 
v -35.3079 4.47903 -135.342 
v -35.5543 4.47903 -135.342 
v -35.3079 5.26699 -43.7725 
v -35.5543 5.26699 -43.7725 
v -35.3079 4.47903 -43.7725 
v -35.5543 4.47903 -43.7725 

vn -1 0 0 
vn -1 0 0 
vn -1 0 0 
vn -1 0 0 
vn 0 1 0 
vn 0 1 0 
vn 0 1 0 
vn 0 1 0 
vn 0 0 -1 
vn 0 0 -1 
vn 0 0 -1 
vn 0 0 -1 
vn 1 0 0 
vn 1 0 0 
vn 1 0 0 
vn 1 0 0 
vn 0 -1 0 
vn 0 -1 0 
vn 0 -1 0 
vn 0 -1 0 
vn 0 0 1 
vn 0 0 1 
vn 0 0 1 
vn 0 0 1 

vt 6.46264 -2.41448 
vt -4.98351 -2.41448 
vt 6.46264 -2.51297 
vt -4.98351 -2.51297 
vt -4.9527 -2.41448 
vt -4.98351 -2.41448 
vt -4.9527 -13.8606 
vt -4.98351 -13.8606 
vt -4.9527 -2.41448 
vt -4.98351 -2.41448 
vt -4.9527 -2.51297 
vt -4.98351 -2.51297 
vt 6.46264 -2.41448 
vt -4.98351 -2.41448 
vt 6.46264 -2.51297 
vt -4.98351 -2.51297 
vt -4.9527 -2.41448 
vt -4.98351 -2.41448 
vt -4.9527 -13.8606 
vt -4.98351 -13.8606 
vt -4.9527 -2.41448 
vt -4.98351 -2.41448 
vt -4.9527 -2.51297 
vt -4.98351 -2.51297 

usemtl Part2Mtl

f 49/49/49 50/50/50 51/51/51 
f 51/51/51 50/50/50 52/52/52 
f 53/53/53 54/54/54 55/55/55 
f 55/55/55 54/54/54 56/56/56 
f 57/57/57 58/58/58 59/59/59 
f 59/59/59 58/58/58 60/60/60 
f 61/61/61 62/62/62 63/63/63 
f 63/63/63 62/62/62 64/64/64 
f 65/65/65 66/66/66 67/67/67 
f 67/67/67 66/66/66 68/68/68 
f 69/69/69 70/70/70 71/71/71 
f 71/71/71 70/70/70 72/72/72 

g Part4

v -35.1337 25.6713 -43.6703 
v -35.1337 25.6713 -143.03 
v -35.1337 1.23839 -43.6703 
v -35.1337 1.23839 -143.03 
v -31.4845 25.6713 -143.03 
v -35.1337 25.6713 -143.03 
v -31.4845 25.6713 -43.6703 
v -35.1337 25.6713 -43.6703 
v -35.1337 25.6713 -143.03 
v -31.4845 25.6713 -143.03 
v -35.1337 1.23839 -143.03 
v -31.4845 1.23839 -143.03 
v -31.4845 25.6713 -143.03 
v -31.4845 25.6713 -43.6703 
v -31.4845 1.23839 -143.03 
v -31.4845 1.23839 -43.6703 
v -31.4845 1.23839 -43.6703 
v -35.1337 1.23839 -43.6703 
v -31.4845 1.23839 -143.03 
v -35.1337 1.23839 -143.03 
v -31.4845 25.6713 -43.6703 
v -35.1337 25.6713 -43.6703 
v -31.4845 1.23839 -43.6703 
v -35.1337 1.23839 -43.6703 

vn -1 0 0 
vn -1 0 0 
vn -1 0 0 
vn -1 0 0 
vn 0 1 0 
vn 0 1 0 
vn 0 1 0 
vn 0 1 0 
vn 0 0 -1 
vn 0 0 -1 
vn 0 0 -1 
vn 0 0 -1 
vn 1 0 0 
vn 1 0 0 
vn 1 0 0 
vn 1 0 0 
vn 0 -1 0 
vn 0 -1 0 
vn 0 -1 0 
vn 0 -1 0 
vn 0 0 1 
vn 0 0 1 
vn 0 0 1 
vn 0 0 1 

vt 15.92 -0.75 
vt 3.5 -0.75 
vt 15.92 -3.80411 
vt 3.5 -3.80411 
vt 3.95615 -0.75 
vt 3.5 -0.75 
vt 3.95615 -13.17 
vt 3.5 -13.17 
vt 3.95615 -0.75 
vt 3.5 -0.75 
vt 3.95615 -3.80411 
vt 3.5 -3.80411 
vt 15.92 -0.75 
vt 3.5 -0.75 
vt 15.92 -3.80411 
vt 3.5 -3.80411 
vt 3.95615 -0.75 
vt 3.5 -0.75 
vt 3.95615 -13.17 
vt 3.5 -13.17 
vt 3.95615 -0.75 
vt 3.5 -0.75 
vt 3.95615 -3.80411 
vt 3.5 -3.80411 

usemtl Part4Mtl

f 73/73/73 74/74/74 75/75/75 
f 75/75/75 74/74/74 76/76/76 
f 77/77/77 78/78/78 79/79/79 
f 79/79/79 78/78/78 80/80/80 
f 81/81/81 82/82/82 83/83/83 
f 83/83/83 82/82/82 84/84/84 
f 85/85/85 86/86/86 87/87/87 
f 87/87/87 86/86/86 88/88/88 
f 89/89/89 90/90/90 91/91/91 
f 91/91/91 90/90/90 92/92/92 
f 93/93/93 94/94/94 95/95/95 
f 95/95/95 94/94/94 96/96/96 

