# This file is brought to you by Roblox Corporation
# Generated by Roblox Studio

mtllib Inside_front_wall.mtl

g Part1

v 39.8258 2.99451 -43.5868 
v 0.629421 2.99451 -43.5868 
v 39.8258 2.05766 -43.5868 
v 0.629421 2.05766 -43.5868 
v 0.629421 2.99451 -43.6922 
v 0.629421 2.99451 -43.5868 
v 39.8258 2.99451 -43.6922 
v 39.8258 2.99451 -43.5868 
v 0.629421 2.99451 -43.5868 
v 0.629421 2.99451 -43.6922 
v 0.629421 2.05766 -43.5868 
v 0.629421 2.05766 -43.6922 
v 0.629421 2.99451 -43.6922 
v 39.8258 2.99451 -43.6922 
v 0.629421 2.05766 -43.6922 
v 39.8258 2.05766 -43.6922 
v 39.8258 2.05766 -43.6922 
v 39.8258 2.05766 -43.5868 
v 0.629421 2.05766 -43.6922 
v 0.629421 2.05766 -43.5868 
v 39.8258 2.99451 -43.6922 
v 39.8258 2.99451 -43.5868 
v 39.8258 2.05766 -43.6922 
v 39.8258 2.05766 -43.5868 

vn 0 0 1 
vn 0 0 1 
vn 0 0 1 
vn 0 0 1 
vn 0 1 0 
vn 0 1 0 
vn 0 1 0 
vn 0 1 0 
vn -1 0 0 
vn -1 0 0 
vn -1 0 0 
vn -1 0 0 
vn 0 0 -1 
vn 0 0 -1 
vn 0 0 -1 
vn 0 0 -1 
vn 0 -1 0 
vn 0 -1 0 
vn 0 -1 0 
vn 0 -1 0 
vn 1 0 0 
vn 1 0 0 
vn 1 0 0 
vn 1 0 0 

vt 6.99323 1.95994 
vt 2.09368 1.95994 
vt 6.99323 1.84284 
vt 2.09368 1.84284 
vt 2.10686 1.95994 
vt 2.09368 1.95994 
vt 2.10686 -2.9396 
vt 2.09368 -2.9396 
vt 2.10686 1.95994 
vt 2.09368 1.95994 
vt 2.10686 1.84284 
vt 2.09368 1.84284 
vt 6.99323 1.95994 
vt 2.09368 1.95994 
vt 6.99323 1.84284 
vt 2.09368 1.84284 
vt 2.10686 1.95994 
vt 2.09368 1.95994 
vt 2.10686 -2.9396 
vt 2.09368 -2.9396 
vt 2.10686 1.95994 
vt 2.09368 1.95994 
vt 2.10686 1.84284 
vt 2.09368 1.84284 

usemtl Part1Mtl

f 1/1/1 2/2/2 3/3/3 
f 3/3/3 2/2/2 4/4/4 
f 5/5/5 6/6/6 7/7/7 
f 7/7/7 6/6/6 8/8/8 
f 9/9/9 10/10/10 11/11/11 
f 11/11/11 10/10/10 12/12/12 
f 13/13/13 14/14/14 15/15/15 
f 15/15/15 14/14/14 16/16/16 
f 17/17/17 18/18/18 19/19/19 
f 19/19/19 18/18/18 20/20/20 
f 21/21/21 22/22/22 23/23/23 
f 23/23/23 22/22/22 24/24/24 

g Part2

v 75.4291 25.6713 -43.6726 
v -32.419 25.6713 -43.6726 
v 75.4291 1.23839 -43.6726 
v -32.419 1.23839 -43.6726 
v -32.419 25.6713 -47.3218 
v -32.419 25.6713 -43.6726 
v 75.4291 25.6713 -47.3218 
v 75.4291 25.6713 -43.6726 
v -32.419 25.6713 -43.6726 
v -32.419 25.6713 -47.3218 
v -32.419 1.23839 -43.6726 
v -32.419 1.23839 -47.3218 
v -32.419 25.6713 -47.3218 
v 75.4291 25.6713 -47.3218 
v -32.419 1.23839 -47.3218 
v 75.4291 1.23839 -47.3218 
v 75.4291 1.23839 -47.3218 
v 75.4291 1.23839 -43.6726 
v -32.419 1.23839 -47.3218 
v -32.419 1.23839 -43.6726 
v 75.4291 25.6713 -47.3218 
v 75.4291 25.6713 -43.6726 
v 75.4291 1.23839 -47.3218 
v 75.4291 1.23839 -43.6726 

vn 0 0 1 
vn 0 0 1 
vn 0 0 1 
vn 0 0 1 
vn 0 1 0 
vn 0 1 0 
vn 0 1 0 
vn 0 1 0 
vn -1 0 0 
vn -1 0 0 
vn -1 0 0 
vn -1 0 0 
vn 0 0 -1 
vn 0 0 -1 
vn 0 0 -1 
vn 0 0 -1 
vn 0 -1 0 
vn 0 -1 0 
vn 0 -1 0 
vn 0 -1 0 
vn 1 0 0 
vn 1 0 0 
vn 1 0 0 
vn 1 0 0 

vt 21.231 -3.75 
vt 7.75 -3.75 
vt 21.231 -6.80411 
vt 7.75 -6.80411 
vt 8.20615 -3.75 
vt 7.75 -3.75 
vt 8.20615 -17.231 
vt 7.75 -17.231 
vt 8.20615 -3.75 
vt 7.75 -3.75 
vt 8.20615 -6.80411 
vt 7.75 -6.80411 
vt 21.231 -3.75 
vt 7.75 -3.75 
vt 21.231 -6.80411 
vt 7.75 -6.80411 
vt 8.20615 -3.75 
vt 7.75 -3.75 
vt 8.20615 -17.231 
vt 7.75 -17.231 
vt 8.20615 -3.75 
vt 7.75 -3.75 
vt 8.20615 -6.80411 
vt 7.75 -6.80411 

usemtl Part2Mtl

f 25/25/25 26/26/26 27/27/27 
f 27/27/27 26/26/26 28/28/28 
f 29/29/29 30/30/30 31/31/31 
f 31/31/31 30/30/30 32/32/32 
f 33/33/33 34/34/34 35/35/35 
f 35/35/35 34/34/34 36/36/36 
f 37/37/37 38/38/38 39/39/39 
f 39/39/39 38/38/38 40/40/40 
f 41/41/41 42/42/42 43/43/43 
f 43/43/43 42/42/42 44/44/44 
f 45/45/45 46/46/46 47/47/47 
f 47/47/47 46/46/46 48/48/48 

