# This file is brought to you by Roblox Corporation
# Generated by Roblox Studio

mtllib Left_Wall.mtl

g Part1

v -51.7999 5.08778 -135.179 
v -51.7999 5.08778 -5.46342 
v -51.7999 4.70866 -135.179 
v -51.7999 4.70866 -5.46342 
v -52.0711 5.08778 -5.46342 
v -51.7999 5.08778 -5.46342 
v -52.0711 5.08778 -135.179 
v -51.7999 5.08778 -135.179 
v -51.7999 5.08778 -5.46342 
v -52.0711 5.08778 -5.46342 
v -51.7999 4.70866 -5.46342 
v -52.0711 4.70866 -5.46342 
v -52.0711 5.08778 -5.46342 
v -52.0711 5.08778 -135.179 
v -52.0711 4.70866 -5.46342 
v -52.0711 4.70866 -135.179 
v -52.0711 4.70866 -135.179 
v -51.7999 4.70866 -135.179 
v -52.0711 4.70866 -5.46342 
v -51.7999 4.70866 -5.46342 
v -52.0711 5.08778 -135.179 
v -51.7999 5.08778 -135.179 
v -52.0711 4.70866 -135.179 
v -51.7999 4.70866 -135.179 

vn 1 0 0 
vn 1 0 0 
vn 1 0 0 
vn 1 0 0 
vn 0 1 0 
vn 0 1 0 
vn 0 1 0 
vn 0 1 0 
vn 0 0 1 
vn 0 0 1 
vn 0 0 1 
vn 0 0 1 
vn -1 0 0 
vn -1 0 0 
vn -1 0 0 
vn -1 0 0 
vn 0 -1 0 
vn 0 -1 0 
vn 0 -1 0 
vn 0 -1 0 
vn 0 0 -1 
vn 0 0 -1 
vn 0 0 -1 
vn 0 0 -1 

vt 14.4505 -5.54585 
vt -1.76388 -5.54585 
vt 14.4505 -5.59324 
vt -1.76388 -5.59324 
vt -1.72997 -5.54585 
vt -1.76388 -5.54585 
vt -1.72997 -21.7602 
vt -1.76388 -21.7602 
vt -1.72997 -5.54585 
vt -1.76388 -5.54585 
vt -1.72997 -5.59324 
vt -1.76388 -5.59324 
vt 14.4505 -5.54585 
vt -1.76388 -5.54585 
vt 14.4505 -5.59324 
vt -1.76388 -5.59324 
vt -1.72997 -5.54585 
vt -1.76388 -5.54585 
vt -1.72997 -21.7602 
vt -1.76388 -21.7602 
vt -1.72997 -5.54585 
vt -1.76388 -5.54585 
vt -1.72997 -5.59324 
vt -1.76388 -5.59324 

usemtl Part1Mtl

f 1/1/1 2/2/2 3/3/3 
f 3/3/3 2/2/2 4/4/4 
f 5/5/5 6/6/6 7/7/7 
f 7/7/7 6/6/6 8/8/8 
f 9/9/9 10/10/10 11/11/11 
f 11/11/11 10/10/10 12/12/12 
f 13/13/13 14/14/14 15/15/15 
f 15/15/15 14/14/14 16/16/16 
f 17/17/17 18/18/18 19/19/19 
f 19/19/19 18/18/18 20/20/20 
f 21/21/21 22/22/22 23/23/23 
f 23/23/23 22/22/22 24/24/24 

g Part2

v -51.5916 5.26699 -135.276 
v -51.5916 5.26699 -5.20717 
v -51.5916 4.47903 -135.276 
v -51.5916 4.47903 -5.20717 
v -51.838 5.26699 -5.20717 
v -51.5916 5.26699 -5.20717 
v -51.838 5.26699 -135.276 
v -51.5916 5.26699 -135.276 
v -51.5916 5.26699 -5.20717 
v -51.838 5.26699 -5.20717 
v -51.5916 4.47903 -5.20717 
v -51.838 4.47903 -5.20717 
v -51.838 5.26699 -5.20717 
v -51.838 5.26699 -135.276 
v -51.838 4.47903 -5.20717 
v -51.838 4.47903 -135.276 
v -51.838 4.47903 -135.276 
v -51.5916 4.47903 -135.276 
v -51.838 4.47903 -5.20717 
v -51.5916 4.47903 -5.20717 
v -51.838 5.26699 -135.276 
v -51.5916 5.26699 -135.276 
v -51.838 4.47903 -135.276 
v -51.5916 4.47903 -135.276 

vn 1 0 0 
vn 1 0 0 
vn 1 0 0 
vn 1 0 0 
vn 0 1 0 
vn 0 1 0 
vn 0 1 0 
vn 0 1 0 
vn 0 0 1 
vn 0 0 1 
vn 0 0 1 
vn 0 0 1 
vn -1 0 0 
vn -1 0 0 
vn -1 0 0 
vn -1 0 0 
vn 0 -1 0 
vn 0 -1 0 
vn 0 -1 0 
vn 0 -1 0 
vn 0 0 -1 
vn 0 0 -1 
vn 0 0 -1 
vn 0 0 -1 

vt 11.5637 -5.81627 
vt -4.69496 -5.81627 
vt 11.5637 -5.91476 
vt -4.69496 -5.91476 
vt -4.66416 -5.81627 
vt -4.69496 -5.81627 
vt -4.66416 -22.0749 
vt -4.69496 -22.0749 
vt -4.66416 -5.81627 
vt -4.69496 -5.81627 
vt -4.66416 -5.91476 
vt -4.69496 -5.91476 
vt 11.5637 -5.81627 
vt -4.69496 -5.81627 
vt 11.5637 -5.91476 
vt -4.69496 -5.91476 
vt -4.66416 -5.81627 
vt -4.69496 -5.81627 
vt -4.66416 -22.0749 
vt -4.69496 -22.0749 
vt -4.66416 -5.81627 
vt -4.69496 -5.81627 
vt -4.66416 -5.91476 
vt -4.69496 -5.91476 

usemtl Part2Mtl

f 25/25/25 26/26/26 27/27/27 
f 27/27/27 26/26/26 28/28/28 
f 29/29/29 30/30/30 31/31/31 
f 31/31/31 30/30/30 32/32/32 
f 33/33/33 34/34/34 35/35/35 
f 35/35/35 34/34/34 36/36/36 
f 37/37/37 38/38/38 39/39/39 
f 39/39/39 38/38/38 40/40/40 
f 41/41/41 42/42/42 43/43/43 
f 43/43/43 42/42/42 44/44/44 
f 45/45/45 46/46/46 47/47/47 
f 47/47/47 46/46/46 48/48/48 

g Part3

v -51.9482 2.99451 -135.892 
v -51.9482 2.99451 -4.5383 
v -51.9482 2.05766 -135.892 
v -51.9482 2.05766 -4.5383 
v -52.0536 2.99451 -4.5383 
v -51.9482 2.99451 -4.5383 
v -52.0536 2.99451 -135.892 
v -51.9482 2.99451 -135.892 
v -51.9482 2.99451 -4.5383 
v -52.0536 2.99451 -4.5383 
v -51.9482 2.05766 -4.5383 
v -52.0536 2.05766 -4.5383 
v -52.0536 2.99451 -4.5383 
v -52.0536 2.99451 -135.892 
v -52.0536 2.05766 -4.5383 
v -52.0536 2.05766 -135.892 
v -52.0536 2.05766 -135.892 
v -51.9482 2.05766 -135.892 
v -52.0536 2.05766 -4.5383 
v -51.9482 2.05766 -4.5383 
v -52.0536 2.99451 -135.892 
v -51.9482 2.99451 -135.892 
v -52.0536 2.05766 -135.892 
v -51.9482 2.05766 -135.892 

vn 1 0 0 
vn 1 0 0 
vn 1 0 0 
vn 1 0 0 
vn 0 1 0 
vn 0 1 0 
vn 0 1 0 
vn 0 1 0 
vn 0 0 1 
vn 0 0 1 
vn 0 0 1 
vn 0 0 1 
vn -1 0 0 
vn -1 0 0 
vn -1 0 0 
vn -1 0 0 
vn 0 -1 0 
vn 0 -1 0 
vn 0 -1 0 
vn 0 -1 0 
vn 0 0 -1 
vn 0 0 -1 
vn 0 0 -1 
vn 0 0 -1 

vt 21.3439 -2.98295 
vt 4.92465 -2.98295 
vt 21.3439 -3.10006 
vt 4.92465 -3.10006 
vt 4.93782 -2.98295 
vt 4.92465 -2.98295 
vt 4.93782 -19.4022 
vt 4.92465 -19.4022 
vt 4.93782 -2.98295 
vt 4.92465 -2.98295 
vt 4.93782 -3.10006 
vt 4.92465 -3.10006 
vt 21.3439 -2.98295 
vt 4.92465 -2.98295 
vt 21.3439 -3.10006 
vt 4.92465 -3.10006 
vt 4.93782 -2.98295 
vt 4.92465 -2.98295 
vt 4.93782 -19.4022 
vt 4.92465 -19.4022 
vt 4.93782 -2.98295 
vt 4.92465 -2.98295 
vt 4.93782 -3.10006 
vt 4.92465 -3.10006 

usemtl Part2Mtl

f 49/49/49 50/50/50 51/51/51 
f 51/51/51 50/50/50 52/52/52 
f 53/53/53 54/54/54 55/55/55 
f 55/55/55 54/54/54 56/56/56 
f 57/57/57 58/58/58 59/59/59 
f 59/59/59 58/58/58 60/60/60 
f 61/61/61 62/62/62 63/63/63 
f 63/63/63 62/62/62 64/64/64 
f 65/65/65 66/66/66 67/67/67 
f 67/67/67 66/66/66 68/68/68 
f 69/69/69 70/70/70 71/71/71 
f 71/71/71 70/70/70 72/72/72 

g Part4

v -52.0122 25.6713 -139.561 
v -52.0122 25.6713 -3.45778 
v -52.0122 1.23839 -139.561 
v -52.0122 1.23839 -3.45778 
v -55.6614 25.6713 -3.45778 
v -52.0122 25.6713 -3.45778 
v -55.6614 25.6713 -139.561 
v -52.0122 25.6713 -139.561 
v -52.0122 25.6713 -3.45778 
v -55.6614 25.6713 -3.45778 
v -52.0122 1.23839 -3.45778 
v -55.6614 1.23839 -3.45778 
v -55.6614 25.6713 -3.45778 
v -55.6614 25.6713 -139.561 
v -55.6614 1.23839 -3.45778 
v -55.6614 1.23839 -139.561 
v -55.6614 1.23839 -139.561 
v -52.0122 1.23839 -139.561 
v -55.6614 1.23839 -3.45778 
v -52.0122 1.23839 -3.45778 
v -55.6614 25.6713 -139.561 
v -52.0122 25.6713 -139.561 
v -55.6614 1.23839 -139.561 
v -52.0122 1.23839 -139.561 

vn 1 0 0 
vn 1 0 0 
vn 1 0 0 
vn 1 0 0 
vn 0 1 0 
vn 0 1 0 
vn 0 1 0 
vn 0 1 0 
vn 0 0 1 
vn 0 0 1 
vn 0 0 1 
vn 0 0 1 
vn -1 0 0 
vn -1 0 0 
vn -1 0 0 
vn -1 0 0 
vn 0 -1 0 
vn 0 -1 0 
vn 0 -1 0 
vn 0 -1 0 
vn 0 0 -1 
vn 0 0 -1 
vn 0 0 -1 
vn 0 0 -1 

vt 21.2629 1 
vt 4.25 1 
vt 21.2629 -2.05411 
vt 4.25 -2.05411 
vt 4.70615 1 
vt 4.25 1 
vt 4.70615 -16.0129 
vt 4.25 -16.0129 
vt 4.70615 1 
vt 4.25 1 
vt 4.70615 -2.05411 
vt 4.25 -2.05411 
vt 21.2629 1 
vt 4.25 1 
vt 21.2629 -2.05411 
vt 4.25 -2.05411 
vt 4.70615 1 
vt 4.25 1 
vt 4.70615 -16.0129 
vt 4.25 -16.0129 
vt 4.70615 1 
vt 4.25 1 
vt 4.70615 -2.05411 
vt 4.25 -2.05411 

usemtl Part4Mtl

f 73/73/73 74/74/74 75/75/75 
f 75/75/75 74/74/74 76/76/76 
f 77/77/77 78/78/78 79/79/79 
f 79/79/79 78/78/78 80/80/80 
f 81/81/81 82/82/82 83/83/83 
f 83/83/83 82/82/82 84/84/84 
f 85/85/85 86/86/86 87/87/87 
f 87/87/87 86/86/86 88/88/88 
f 89/89/89 90/90/90 91/91/91 
f 91/91/91 90/90/90 92/92/92 
f 93/93/93 94/94/94 95/95/95 
f 95/95/95 94/94/94 96/96/96 

