# This file is brought to you by Roblox Corporation
# Generated by Roblox Studio

mtllib Right_Wall.mtl

g Part1

v 92.1821 2.99451 -4.38418 
v 92.1821 2.99451 -135.611 
v 92.1821 2.05766 -4.38418 
v 92.1821 2.05766 -135.611 
v 92.2875 2.99451 -135.611 
v 92.1821 2.99451 -135.611 
v 92.2875 2.99451 -4.38418 
v 92.1821 2.99451 -4.38418 
v 92.1821 2.99451 -135.611 
v 92.2875 2.99451 -135.611 
v 92.1821 2.05766 -135.611 
v 92.2875 2.05766 -135.611 
v 92.2875 2.99451 -135.611 
v 92.2875 2.99451 -4.38418 
v 92.2875 2.05766 -135.611 
v 92.2875 2.05766 -4.38418 
v 92.2875 2.05766 -4.38418 
v 92.1821 2.05766 -4.38418 
v 92.2875 2.05766 -135.611 
v 92.1821 2.05766 -135.611 
v 92.2875 2.99451 -4.38418 
v 92.1821 2.99451 -4.38418 
v 92.2875 2.05766 -4.38418 
v 92.1821 2.05766 -4.38418 

vn -1 0 0 
vn -1 0 0 
vn -1 0 0 
vn -1 0 0 
vn 0 1 0 
vn 0 1 0 
vn 0 1 0 
vn 0 1 0 
vn 0 0 -1 
vn 0 0 -1 
vn 0 0 -1 
vn 0 0 -1 
vn 1 0 0 
vn 1 0 0 
vn 1 0 0 
vn 1 0 0 
vn 0 -1 0 
vn 0 -1 0 
vn 0 -1 0 
vn 0 -1 0 
vn 0 0 1 
vn 0 0 1 
vn 0 0 1 
vn 0 0 1 

vt 21.8042 -3.91991 
vt 5.40092 -3.91991 
vt 21.8042 -4.03702 
vt 5.40092 -4.03702 
vt 5.41409 -3.91991 
vt 5.40092 -3.91991 
vt 5.41409 -20.3232 
vt 5.40092 -20.3232 
vt 5.41409 -3.91991 
vt 5.40092 -3.91991 
vt 5.41409 -4.03702 
vt 5.40092 -4.03702 
vt 21.8042 -3.91991 
vt 5.40092 -3.91991 
vt 21.8042 -4.03702 
vt 5.40092 -4.03702 
vt 5.41409 -3.91991 
vt 5.40092 -3.91991 
vt 5.41409 -20.3232 
vt 5.40092 -20.3232 
vt 5.41409 -3.91991 
vt 5.40092 -3.91991 
vt 5.41409 -4.03702 
vt 5.40092 -4.03702 

usemtl Part1Mtl

f 1/1/1 2/2/2 3/3/3 
f 3/3/3 2/2/2 4/4/4 
f 5/5/5 6/6/6 7/7/7 
f 7/7/7 6/6/6 8/8/8 
f 9/9/9 10/10/10 11/11/11 
f 11/11/11 10/10/10 12/12/12 
f 13/13/13 14/14/14 15/15/15 
f 15/15/15 14/14/14 16/16/16 
f 17/17/17 18/18/18 19/19/19 
f 19/19/19 18/18/18 20/20/20 
f 21/21/21 22/22/22 23/23/23 
f 23/23/23 22/22/22 24/24/24 

g Part2

v 91.8255 5.26699 -5.27248 
v 91.8255 5.26699 -135.342 
v 91.8255 4.47903 -5.27248 
v 91.8255 4.47903 -135.342 
v 92.0719 5.26699 -135.342 
v 91.8255 5.26699 -135.342 
v 92.0719 5.26699 -5.27248 
v 91.8255 5.26699 -5.27248 
v 91.8255 5.26699 -135.342 
v 92.0719 5.26699 -135.342 
v 91.8255 4.47903 -135.342 
v 92.0719 4.47903 -135.342 
v 92.0719 5.26699 -135.342 
v 92.0719 5.26699 -5.27248 
v 92.0719 4.47903 -135.342 
v 92.0719 4.47903 -5.27248 
v 92.0719 4.47903 -5.27248 
v 91.8255 4.47903 -5.27248 
v 92.0719 4.47903 -135.342 
v 91.8255 4.47903 -135.342 
v 92.0719 5.26699 -5.27248 
v 91.8255 5.26699 -5.27248 
v 92.0719 4.47903 -5.27248 
v 91.8255 4.47903 -5.27248 

vn -1 0 0 
vn -1 0 0 
vn -1 0 0 
vn -1 0 0 
vn 0 1 0 
vn 0 1 0 
vn 0 1 0 
vn 0 1 0 
vn 0 0 -1 
vn 0 0 -1 
vn 0 0 -1 
vn 0 0 -1 
vn 1 0 0 
vn 1 0 0 
vn 1 0 0 
vn 1 0 0 
vn 0 -1 0 
vn 0 -1 0 
vn 0 -1 0 
vn 0 -1 0 
vn 0 0 1 
vn 0 0 1 
vn 0 0 1 
vn 0 0 1 

vt 21.0927 8.32208 
vt 4.83405 8.32208 
vt 21.0927 8.22359 
vt 4.83405 8.22359 
vt 4.86485 8.32208 
vt 4.83405 8.32208 
vt 4.86485 -7.93656 
vt 4.83405 -7.93656 
vt 4.86485 8.32208 
vt 4.83405 8.32208 
vt 4.86485 8.22359 
vt 4.83405 8.22359 
vt 21.0927 8.32208 
vt 4.83405 8.32208 
vt 21.0927 8.22359 
vt 4.83405 8.22359 
vt 4.86485 8.32208 
vt 4.83405 8.32208 
vt 4.86485 -7.93656 
vt 4.83405 -7.93656 
vt 4.86485 8.32208 
vt 4.83405 8.32208 
vt 4.86485 8.22359 
vt 4.83405 8.22359 

usemtl Part1Mtl

f 25/25/25 26/26/26 27/27/27 
f 27/27/27 26/26/26 28/28/28 
f 29/29/29 30/30/30 31/31/31 
f 31/31/31 30/30/30 32/32/32 
f 33/33/33 34/34/34 35/35/35 
f 35/35/35 34/34/34 36/36/36 
f 37/37/37 38/38/38 39/39/39 
f 39/39/39 38/38/38 40/40/40 
f 41/41/41 42/42/42 43/43/43 
f 43/43/43 42/42/42 44/44/44 
f 45/45/45 46/46/46 47/47/47 
f 47/47/47 46/46/46 48/48/48 

g Part3

v 92.0338 5.08778 -5.3703 
v 92.0338 5.08778 -135.096 
v 92.0338 4.70866 -5.3703 
v 92.0338 4.70866 -135.096 
v 92.305 5.08778 -135.096 
v 92.0338 5.08778 -135.096 
v 92.305 5.08778 -5.3703 
v 92.0338 5.08778 -5.3703 
v 92.0338 5.08778 -135.096 
v 92.305 5.08778 -135.096 
v 92.0338 4.70866 -135.096 
v 92.305 4.70866 -135.096 
v 92.305 5.08778 -135.096 
v 92.305 5.08778 -5.3703 
v 92.305 4.70866 -135.096 
v 92.305 4.70866 -5.3703 
v 92.305 4.70866 -5.3703 
v 92.0338 4.70866 -5.3703 
v 92.305 4.70866 -135.096 
v 92.0338 4.70866 -135.096 
v 92.305 5.08778 -5.3703 
v 92.0338 5.08778 -5.3703 
v 92.305 4.70866 -5.3703 
v 92.0338 4.70866 -5.3703 

vn -1 0 0 
vn -1 0 0 
vn -1 0 0 
vn -1 0 0 
vn 0 1 0 
vn 0 1 0 
vn 0 1 0 
vn 0 1 0 
vn 0 0 -1 
vn 0 0 -1 
vn 0 0 -1 
vn 0 0 -1 
vn 1 0 0 
vn 1 0 0 
vn 1 0 0 
vn 1 0 0 
vn 0 -1 0 
vn 0 -1 0 
vn 0 -1 0 
vn 0 -1 0 
vn 0 0 1 
vn 0 0 1 
vn 0 0 1 
vn 0 0 1 

vt 17.0472 -6.65538 
vt 0.831503 -6.65538 
vt 17.0472 -6.70277 
vt 0.831503 -6.70277 
vt 0.865411 -6.65538 
vt 0.831503 -6.65538 
vt 0.865411 -22.871 
vt 0.831503 -22.871 
vt 0.865411 -6.65538 
vt 0.831503 -6.65538 
vt 0.865411 -6.70277 
vt 0.831503 -6.70277 
vt 17.0472 -6.65538 
vt 0.831503 -6.65538 
vt 17.0472 -6.70277 
vt 0.831503 -6.70277 
vt 0.865411 -6.65538 
vt 0.831503 -6.65538 
vt 0.865411 -22.871 
vt 0.831503 -22.871 
vt 0.865411 -6.65538 
vt 0.831503 -6.65538 
vt 0.865411 -6.70277 
vt 0.831503 -6.70277 

usemtl Part3Mtl

f 49/49/49 50/50/50 51/51/51 
f 51/51/51 50/50/50 52/52/52 
f 53/53/53 54/54/54 55/55/55 
f 55/55/55 54/54/54 56/56/56 
f 57/57/57 58/58/58 59/59/59 
f 59/59/59 58/58/58 60/60/60 
f 61/61/61 62/62/62 63/63/63 
f 63/63/63 62/62/62 64/64/64 
f 65/65/65 66/66/66 67/67/67 
f 67/67/67 66/66/66 68/68/68 
f 69/69/69 70/70/70 71/71/71 
f 71/71/71 70/70/70 72/72/72 

g Part4

v 92.2461 25.6713 -1.96576 
v 92.2461 25.6713 -138.19 
v 92.2461 1.23839 -1.96576 
v 92.2461 1.23839 -138.19 
v 95.8953 25.6713 -138.19 
v 92.2461 25.6713 -138.19 
v 95.8953 25.6713 -1.96576 
v 92.2461 25.6713 -1.96576 
v 92.2461 25.6713 -138.19 
v 95.8953 25.6713 -138.19 
v 92.2461 1.23839 -138.19 
v 95.8953 1.23839 -138.19 
v 95.8953 25.6713 -138.19 
v 95.8953 25.6713 -1.96576 
v 95.8953 1.23839 -138.19 
v 95.8953 1.23839 -1.96576 
v 95.8953 1.23839 -1.96576 
v 92.2461 1.23839 -1.96576 
v 95.8953 1.23839 -138.19 
v 92.2461 1.23839 -138.19 
v 95.8953 25.6713 -1.96576 
v 92.2461 25.6713 -1.96576 
v 95.8953 1.23839 -1.96576 
v 92.2461 1.23839 -1.96576 

vn -1 0 0 
vn -1 0 0 
vn -1 0 0 
vn -1 0 0 
vn 0 1 0 
vn 0 1 0 
vn 0 1 0 
vn 0 1 0 
vn 0 0 -1 
vn 0 0 -1 
vn 0 0 -1 
vn 0 0 -1 
vn 1 0 0 
vn 1 0 0 
vn 1 0 0 
vn 1 0 0 
vn 0 -1 0 
vn 0 -1 0 
vn 0 -1 0 
vn 0 -1 0 
vn 0 0 1 
vn 0 0 1 
vn 0 0 1 
vn 0 0 1 

vt 23.5281 -3.75 
vt 6.5 -3.75 
vt 23.5281 -6.80411 
vt 6.5 -6.80411 
vt 6.95615 -3.75 
vt 6.5 -3.75 
vt 6.95615 -20.7781 
vt 6.5 -20.7781 
vt 6.95615 -3.75 
vt 6.5 -3.75 
vt 6.95615 -6.80411 
vt 6.5 -6.80411 
vt 23.5281 -3.75 
vt 6.5 -3.75 
vt 23.5281 -6.80411 
vt 6.5 -6.80411 
vt 6.95615 -3.75 
vt 6.5 -3.75 
vt 6.95615 -20.7781 
vt 6.5 -20.7781 
vt 6.95615 -3.75 
vt 6.5 -3.75 
vt 6.95615 -6.80411 
vt 6.5 -6.80411 

usemtl Part4Mtl

f 73/73/73 74/74/74 75/75/75 
f 75/75/75 74/74/74 76/76/76 
f 77/77/77 78/78/78 79/79/79 
f 79/79/79 78/78/78 80/80/80 
f 81/81/81 82/82/82 83/83/83 
f 83/83/83 82/82/82 84/84/84 
f 85/85/85 86/86/86 87/87/87 
f 87/87/87 86/86/86 88/88/88 
f 89/89/89 90/90/90 91/91/91 
f 91/91/91 90/90/90 92/92/92 
f 93/93/93 94/94/94 95/95/95 
f 95/95/95 94/94/94 96/96/96 

