# This file is brought to you by Roblox Corporation
# Generated by Roblox Studio

mtllib stairs.mtl

g Part1

v 112.81 24.5107 -84.862 
v 112.81 24.5107 50.9336 
v 112.81 6.70273 -84.862 
v 112.81 6.70273 50.9336 
v 108.81 24.5107 50.9336 
v 112.81 24.5107 50.9336 
v 108.81 24.5107 -84.862 
v 112.81 24.5107 -84.862 
v 112.81 24.5107 50.9336 
v 108.81 24.5107 50.9336 
v 112.81 6.70273 50.9336 
v 108.81 6.70273 50.9336 
v 108.81 24.5107 50.9336 
v 108.81 24.5107 -84.862 
v 108.81 6.70273 50.9336 
v 108.81 6.70273 -84.862 
v 108.81 6.70273 -84.862 
v 112.81 6.70273 -84.862 
v 108.81 6.70273 50.9336 
v 112.81 6.70273 50.9336 
v 108.81 24.5107 -84.862 
v 112.81 24.5107 -84.862 
v 108.81 6.70273 -84.862 
v 112.81 6.70273 -84.862 

vn 1 0 0 
vn 1 0 0 
vn 1 0 0 
vn 1 0 0 
vn 0 1 0 
vn 0 1 0 
vn 0 1 0 
vn 0 1 0 
vn 0 0 1 
vn 0 0 1 
vn 0 0 1 
vn 0 0 1 
vn -1 0 0 
vn -1 0 0 
vn -1 0 0 
vn -1 0 0 
vn 0 -1 0 
vn 0 -1 0 
vn 0 -1 0 
vn 0 -1 0 
vn 0 0 -1 
vn 0 0 -1 
vn 0 0 -1 
vn 0 0 -1 

vt 17.2245 -5.75 
vt 0.25 -5.75 
vt 17.2245 -7.97599 
vt 0.25 -7.97599 
vt 0.75 -5.75 
vt 0.25 -5.75 
vt 0.75 -22.7245 
vt 0.25 -22.7245 
vt 0.75 -5.75 
vt 0.25 -5.75 
vt 0.75 -7.97599 
vt 0.25 -7.97599 
vt 17.2245 -5.75 
vt 0.25 -5.75 
vt 17.2245 -7.97599 
vt 0.25 -7.97599 
vt 0.75 -5.75 
vt 0.25 -5.75 
vt 0.75 -22.7245 
vt 0.25 -22.7245 
vt 0.75 -5.75 
vt 0.25 -5.75 
vt 0.75 -7.97599 
vt 0.25 -7.97599 

usemtl Part1Mtl

f 1/1/1 2/2/2 3/3/3 
f 3/3/3 2/2/2 4/4/4 
f 5/5/5 6/6/6 7/7/7 
f 7/7/7 6/6/6 8/8/8 
f 9/9/9 10/10/10 11/11/11 
f 11/11/11 10/10/10 12/12/12 
f 13/13/13 14/14/14 15/15/15 
f 15/15/15 14/14/14 16/16/16 
f 17/17/17 18/18/18 19/19/19 
f 19/19/19 18/18/18 20/20/20 
f 21/21/21 22/22/22 23/23/23 
f 23/23/23 22/22/22 24/24/24 

g Part2

v 114.295 8.67547 -86.3052 
v 114.295 8.67547 52.4708 
v 114.295 6.51637 -86.3052 
v 114.295 6.51637 52.4708 
v 108.759 8.67547 52.4708 
v 114.295 8.67547 52.4708 
v 108.759 8.67547 -86.3052 
v 114.295 8.67547 -86.3052 
v 114.295 8.67547 52.4708 
v 108.759 8.67547 52.4708 
v 114.295 6.51637 52.4708 
v 108.759 6.51637 52.4708 
v 108.759 8.67547 52.4708 
v 108.759 8.67547 -86.3052 
v 108.759 6.51637 52.4708 
v 108.759 6.51637 -86.3052 
v 108.759 6.51637 -86.3052 
v 114.295 6.51637 -86.3052 
v 108.759 6.51637 52.4708 
v 114.295 6.51637 52.4708 
v 108.759 8.67547 -86.3052 
v 114.295 8.67547 -86.3052 
v 108.759 6.51637 -86.3052 
v 114.295 6.51637 -86.3052 

vn 1 0 0 
vn 1 0 0 
vn 1 0 0 
vn 1 0 0 
vn 0 1 0 
vn 0 1 0 
vn 0 1 0 
vn 0 1 0 
vn 0 0 1 
vn 0 0 1 
vn 0 0 1 
vn 0 0 1 
vn -1 0 0 
vn -1 0 0 
vn -1 0 0 
vn -1 0 0 
vn 0 -1 0 
vn 0 -1 0 
vn 0 -1 0 
vn 0 -1 0 
vn 0 0 -1 
vn 0 0 -1 
vn 0 0 -1 
vn 0 0 -1 

vt 22.847 -2.5 
vt 5.5 -2.5 
vt 22.847 -2.76989 
vt 5.5 -2.76989 
vt 6.19203 -2.5 
vt 5.5 -2.5 
vt 6.19203 -19.847 
vt 5.5 -19.847 
vt 6.19203 -2.5 
vt 5.5 -2.5 
vt 6.19203 -2.76989 
vt 5.5 -2.76989 
vt 22.847 -2.5 
vt 5.5 -2.5 
vt 22.847 -2.76989 
vt 5.5 -2.76989 
vt 6.19203 -2.5 
vt 5.5 -2.5 
vt 6.19203 -19.847 
vt 5.5 -19.847 
vt 6.19203 -2.5 
vt 5.5 -2.5 
vt 6.19203 -2.76989 
vt 5.5 -2.76989 

usemtl Part2Mtl

f 25/25/25 26/26/26 27/27/27 
f 27/27/27 26/26/26 28/28/28 
f 29/29/29 30/30/30 31/31/31 
f 31/31/31 30/30/30 32/32/32 
f 33/33/33 34/34/34 35/35/35 
f 35/35/35 34/34/34 36/36/36 
f 37/37/37 38/38/38 39/39/39 
f 39/39/39 38/38/38 40/40/40 
f 41/41/41 42/42/42 43/43/43 
f 43/43/43 42/42/42 44/44/44 
f 45/45/45 46/46/46 47/47/47 
f 47/47/47 46/46/46 48/48/48 

g Part3

v 112.295 7.67547 -86.3052 
v 112.295 7.67547 52.4708 
v 112.295 5.51637 -86.3052 
v 112.295 5.51637 52.4708 
v 106.759 7.67547 52.4708 
v 112.295 7.67547 52.4708 
v 106.759 7.67547 -86.3052 
v 112.295 7.67547 -86.3052 
v 112.295 7.67547 52.4708 
v 106.759 7.67547 52.4708 
v 112.295 5.51637 52.4708 
v 106.759 5.51637 52.4708 
v 106.759 7.67547 52.4708 
v 106.759 7.67547 -86.3052 
v 106.759 5.51637 52.4708 
v 106.759 5.51637 -86.3052 
v 106.759 5.51637 -86.3052 
v 112.295 5.51637 -86.3052 
v 106.759 5.51637 52.4708 
v 112.295 5.51637 52.4708 
v 106.759 7.67547 -86.3052 
v 112.295 7.67547 -86.3052 
v 106.759 5.51637 -86.3052 
v 112.295 5.51637 -86.3052 

vn 1 0 0 
vn 1 0 0 
vn 1 0 0 
vn 1 0 0 
vn 0 1 0 
vn 0 1 0 
vn 0 1 0 
vn 0 1 0 
vn 0 0 1 
vn 0 0 1 
vn 0 0 1 
vn 0 0 1 
vn -1 0 0 
vn -1 0 0 
vn -1 0 0 
vn -1 0 0 
vn 0 -1 0 
vn 0 -1 0 
vn 0 -1 0 
vn 0 -1 0 
vn 0 0 -1 
vn 0 0 -1 
vn 0 0 -1 
vn 0 0 -1 

vt 18.097 -1.25 
vt 0.75 -1.25 
vt 18.097 -1.51989 
vt 0.75 -1.51989 
vt 1.44203 -1.25 
vt 0.75 -1.25 
vt 1.44203 -18.597 
vt 0.75 -18.597 
vt 1.44203 -1.25 
vt 0.75 -1.25 
vt 1.44203 -1.51989 
vt 0.75 -1.51989 
vt 18.097 -1.25 
vt 0.75 -1.25 
vt 18.097 -1.51989 
vt 0.75 -1.51989 
vt 1.44203 -1.25 
vt 0.75 -1.25 
vt 1.44203 -18.597 
vt 0.75 -18.597 
vt 1.44203 -1.25 
vt 0.75 -1.25 
vt 1.44203 -1.51989 
vt 0.75 -1.51989 

usemtl Part2Mtl

f 49/49/49 50/50/50 51/51/51 
f 51/51/51 50/50/50 52/52/52 
f 53/53/53 54/54/54 55/55/55 
f 55/55/55 54/54/54 56/56/56 
f 57/57/57 58/58/58 59/59/59 
f 59/59/59 58/58/58 60/60/60 
f 61/61/61 62/62/62 63/63/63 
f 63/63/63 62/62/62 64/64/64 
f 65/65/65 66/66/66 67/67/67 
f 67/67/67 66/66/66 68/68/68 
f 69/69/69 70/70/70 71/71/71 
f 71/71/71 70/70/70 72/72/72 

g Part4

v 110.295 6.67547 -86.3052 
v 110.295 6.67547 52.4708 
v 110.295 4.51637 -86.3052 
v 110.295 4.51637 52.4708 
v 104.759 6.67547 52.4708 
v 110.295 6.67547 52.4708 
v 104.759 6.67547 -86.3052 
v 110.295 6.67547 -86.3052 
v 110.295 6.67547 52.4708 
v 104.759 6.67547 52.4708 
v 110.295 4.51637 52.4708 
v 104.759 4.51637 52.4708 
v 104.759 6.67547 52.4708 
v 104.759 6.67547 -86.3052 
v 104.759 4.51637 52.4708 
v 104.759 4.51637 -86.3052 
v 104.759 4.51637 -86.3052 
v 110.295 4.51637 -86.3052 
v 104.759 4.51637 52.4708 
v 110.295 4.51637 52.4708 
v 104.759 6.67547 -86.3052 
v 110.295 6.67547 -86.3052 
v 104.759 4.51637 -86.3052 
v 110.295 4.51637 -86.3052 

vn 1 0 0 
vn 1 0 0 
vn 1 0 0 
vn 1 0 0 
vn 0 1 0 
vn 0 1 0 
vn 0 1 0 
vn 0 1 0 
vn 0 0 1 
vn 0 0 1 
vn 0 0 1 
vn 0 0 1 
vn -1 0 0 
vn -1 0 0 
vn -1 0 0 
vn -1 0 0 
vn 0 -1 0 
vn 0 -1 0 
vn 0 -1 0 
vn 0 -1 0 
vn 0 0 -1 
vn 0 0 -1 
vn 0 0 -1 
vn 0 0 -1 

vt 19.097 -2.75 
vt 1.75 -2.75 
vt 19.097 -3.01989 
vt 1.75 -3.01989 
vt 2.44203 -2.75 
vt 1.75 -2.75 
vt 2.44203 -20.097 
vt 1.75 -20.097 
vt 2.44203 -2.75 
vt 1.75 -2.75 
vt 2.44203 -3.01989 
vt 1.75 -3.01989 
vt 19.097 -2.75 
vt 1.75 -2.75 
vt 19.097 -3.01989 
vt 1.75 -3.01989 
vt 2.44203 -2.75 
vt 1.75 -2.75 
vt 2.44203 -20.097 
vt 1.75 -20.097 
vt 2.44203 -2.75 
vt 1.75 -2.75 
vt 2.44203 -3.01989 
vt 1.75 -3.01989 

usemtl Part2Mtl

f 73/73/73 74/74/74 75/75/75 
f 75/75/75 74/74/74 76/76/76 
f 77/77/77 78/78/78 79/79/79 
f 79/79/79 78/78/78 80/80/80 
f 81/81/81 82/82/82 83/83/83 
f 83/83/83 82/82/82 84/84/84 
f 85/85/85 86/86/86 87/87/87 
f 87/87/87 86/86/86 88/88/88 
f 89/89/89 90/90/90 91/91/91 
f 91/91/91 90/90/90 92/92/92 
f 93/93/93 94/94/94 95/95/95 
f 95/95/95 94/94/94 96/96/96 

g Part5

v 108.295 5.67547 -86.3052 
v 108.295 5.67547 52.4708 
v 108.295 3.51637 -86.3052 
v 108.295 3.51637 52.4708 
v 102.759 5.67547 52.4708 
v 108.295 5.67547 52.4708 
v 102.759 5.67547 -86.3052 
v 108.295 5.67547 -86.3052 
v 108.295 5.67547 52.4708 
v 102.759 5.67547 52.4708 
v 108.295 3.51637 52.4708 
v 102.759 3.51637 52.4708 
v 102.759 5.67547 52.4708 
v 102.759 5.67547 -86.3052 
v 102.759 3.51637 52.4708 
v 102.759 3.51637 -86.3052 
v 102.759 3.51637 -86.3052 
v 108.295 3.51637 -86.3052 
v 102.759 3.51637 52.4708 
v 108.295 3.51637 52.4708 
v 102.759 5.67547 -86.3052 
v 108.295 5.67547 -86.3052 
v 102.759 3.51637 -86.3052 
v 108.295 3.51637 -86.3052 

vn 1 0 0 
vn 1 0 0 
vn 1 0 0 
vn 1 0 0 
vn 0 1 0 
vn 0 1 0 
vn 0 1 0 
vn 0 1 0 
vn 0 0 1 
vn 0 0 1 
vn 0 0 1 
vn 0 0 1 
vn -1 0 0 
vn -1 0 0 
vn -1 0 0 
vn -1 0 0 
vn 0 -1 0 
vn 0 -1 0 
vn 0 -1 0 
vn 0 -1 0 
vn 0 0 -1 
vn 0 0 -1 
vn 0 0 -1 
vn 0 0 -1 

vt 22.597 -3.5 
vt 5.25 -3.5 
vt 22.597 -3.76989 
vt 5.25 -3.76989 
vt 5.94203 -3.5 
vt 5.25 -3.5 
vt 5.94203 -20.847 
vt 5.25 -20.847 
vt 5.94203 -3.5 
vt 5.25 -3.5 
vt 5.94203 -3.76989 
vt 5.25 -3.76989 
vt 22.597 -3.5 
vt 5.25 -3.5 
vt 22.597 -3.76989 
vt 5.25 -3.76989 
vt 5.94203 -3.5 
vt 5.25 -3.5 
vt 5.94203 -20.847 
vt 5.25 -20.847 
vt 5.94203 -3.5 
vt 5.25 -3.5 
vt 5.94203 -3.76989 
vt 5.25 -3.76989 

usemtl Part2Mtl

f 97/97/97 98/98/98 99/99/99 
f 99/99/99 98/98/98 100/100/100 
f 101/101/101 102/102/102 103/103/103 
f 103/103/103 102/102/102 104/104/104 
f 105/105/105 106/106/106 107/107/107 
f 107/107/107 106/106/106 108/108/108 
f 109/109/109 110/110/110 111/111/111 
f 111/111/111 110/110/110 112/112/112 
f 113/113/113 114/114/114 115/115/115 
f 115/115/115 114/114/114 116/116/116 
f 117/117/117 118/118/118 119/119/119 
f 119/119/119 118/118/118 120/120/120 

g Part6

v 106.295 4.67547 -86.3052 
v 106.295 4.67547 52.4708 
v 106.295 2.51637 -86.3052 
v 106.295 2.51637 52.4708 
v 100.759 4.67547 52.4708 
v 106.295 4.67547 52.4708 
v 100.759 4.67547 -86.3052 
v 106.295 4.67547 -86.3052 
v 106.295 4.67547 52.4708 
v 100.759 4.67547 52.4708 
v 106.295 2.51637 52.4708 
v 100.759 2.51637 52.4708 
v 100.759 4.67547 52.4708 
v 100.759 4.67547 -86.3052 
v 100.759 2.51637 52.4708 
v 100.759 2.51637 -86.3052 
v 100.759 2.51637 -86.3052 
v 106.295 2.51637 -86.3052 
v 100.759 2.51637 52.4708 
v 106.295 2.51637 52.4708 
v 100.759 4.67547 -86.3052 
v 106.295 4.67547 -86.3052 
v 100.759 2.51637 -86.3052 
v 106.295 2.51637 -86.3052 

vn 1 0 0 
vn 1 0 0 
vn 1 0 0 
vn 1 0 0 
vn 0 1 0 
vn 0 1 0 
vn 0 1 0 
vn 0 1 0 
vn 0 0 1 
vn 0 0 1 
vn 0 0 1 
vn 0 0 1 
vn -1 0 0 
vn -1 0 0 
vn -1 0 0 
vn -1 0 0 
vn 0 -1 0 
vn 0 -1 0 
vn 0 -1 0 
vn 0 -1 0 
vn 0 0 -1 
vn 0 0 -1 
vn 0 0 -1 
vn 0 0 -1 

vt 25.097 -0.25 
vt 7.75 -0.25 
vt 25.097 -0.519888 
vt 7.75 -0.519888 
vt 8.44203 -0.25 
vt 7.75 -0.25 
vt 8.44203 -17.597 
vt 7.75 -17.597 
vt 8.44203 -0.25 
vt 7.75 -0.25 
vt 8.44203 -0.519888 
vt 7.75 -0.519888 
vt 25.097 -0.25 
vt 7.75 -0.25 
vt 25.097 -0.519888 
vt 7.75 -0.519888 
vt 8.44203 -0.25 
vt 7.75 -0.25 
vt 8.44203 -17.597 
vt 7.75 -17.597 
vt 8.44203 -0.25 
vt 7.75 -0.25 
vt 8.44203 -0.519888 
vt 7.75 -0.519888 

usemtl Part2Mtl

f 121/121/121 122/122/122 123/123/123 
f 123/123/123 122/122/122 124/124/124 
f 125/125/125 126/126/126 127/127/127 
f 127/127/127 126/126/126 128/128/128 
f 129/129/129 130/130/130 131/131/131 
f 131/131/131 130/130/130 132/132/132 
f 133/133/133 134/134/134 135/135/135 
f 135/135/135 134/134/134 136/136/136 
f 137/137/137 138/138/138 139/139/139 
f 139/139/139 138/138/138 140/140/140 
f 141/141/141 142/142/142 143/143/143 
f 143/143/143 142/142/142 144/144/144 

g Part7

v 104.295 3.67547 -86.3052 
v 104.295 3.67547 52.4708 
v 104.295 1.51637 -86.3052 
v 104.295 1.51637 52.4708 
v 98.7586 3.67547 52.4708 
v 104.295 3.67547 52.4708 
v 98.7586 3.67547 -86.3052 
v 104.295 3.67547 -86.3052 
v 104.295 3.67547 52.4708 
v 98.7586 3.67547 52.4708 
v 104.295 1.51637 52.4708 
v 98.7586 1.51637 52.4708 
v 98.7586 3.67547 52.4708 
v 98.7586 3.67547 -86.3052 
v 98.7586 1.51637 52.4708 
v 98.7586 1.51637 -86.3052 
v 98.7586 1.51637 -86.3052 
v 104.295 1.51637 -86.3052 
v 98.7586 1.51637 52.4708 
v 104.295 1.51637 52.4708 
v 98.7586 3.67547 -86.3052 
v 104.295 3.67547 -86.3052 
v 98.7586 1.51637 -86.3052 
v 104.295 1.51637 -86.3052 

vn 1 0 0 
vn 1 0 0 
vn 1 0 0 
vn 1 0 0 
vn 0 1 0 
vn 0 1 0 
vn 0 1 0 
vn 0 1 0 
vn 0 0 1 
vn 0 0 1 
vn 0 0 1 
vn 0 0 1 
vn -1 0 0 
vn -1 0 0 
vn -1 0 0 
vn -1 0 0 
vn 0 -1 0 
vn 0 -1 0 
vn 0 -1 0 
vn 0 -1 0 
vn 0 0 -1 
vn 0 0 -1 
vn 0 0 -1 
vn 0 0 -1 

vt 25.097 -3.75 
vt 7.75 -3.75 
vt 25.097 -4.01989 
vt 7.75 -4.01989 
vt 8.44203 -3.75 
vt 7.75 -3.75 
vt 8.44203 -21.097 
vt 7.75 -21.097 
vt 8.44203 -3.75 
vt 7.75 -3.75 
vt 8.44203 -4.01989 
vt 7.75 -4.01989 
vt 25.097 -3.75 
vt 7.75 -3.75 
vt 25.097 -4.01989 
vt 7.75 -4.01989 
vt 8.44203 -3.75 
vt 7.75 -3.75 
vt 8.44203 -21.097 
vt 7.75 -21.097 
vt 8.44203 -3.75 
vt 7.75 -3.75 
vt 8.44203 -4.01989 
vt 7.75 -4.01989 

usemtl Part2Mtl

f 145/145/145 146/146/146 147/147/147 
f 147/147/147 146/146/146 148/148/148 
f 149/149/149 150/150/150 151/151/151 
f 151/151/151 150/150/150 152/152/152 
f 153/153/153 154/154/154 155/155/155 
f 155/155/155 154/154/154 156/156/156 
f 157/157/157 158/158/158 159/159/159 
f 159/159/159 158/158/158 160/160/160 
f 161/161/161 162/162/162 163/163/163 
f 163/163/163 162/162/162 164/164/164 
f 165/165/165 166/166/166 167/167/167 
f 167/167/167 166/166/166 168/168/168 

g Part8

v 102.295 2.67547 -86.3052 
v 102.295 2.67547 52.4708 
v 102.295 0.516368 -86.3052 
v 102.295 0.516368 52.4708 
v 96.7586 2.67547 52.4708 
v 102.295 2.67547 52.4708 
v 96.7586 2.67547 -86.3052 
v 102.295 2.67547 -86.3052 
v 102.295 2.67547 52.4708 
v 96.7586 2.67547 52.4708 
v 102.295 0.516368 52.4708 
v 96.7586 0.516368 52.4708 
v 96.7586 2.67547 52.4708 
v 96.7586 2.67547 -86.3052 
v 96.7586 0.516368 52.4708 
v 96.7586 0.516368 -86.3052 
v 96.7586 0.516368 -86.3052 
v 102.295 0.516368 -86.3052 
v 96.7586 0.516368 52.4708 
v 102.295 0.516368 52.4708 
v 96.7586 2.67547 -86.3052 
v 102.295 2.67547 -86.3052 
v 96.7586 0.516368 -86.3052 
v 102.295 0.516368 -86.3052 

vn 1 0 0 
vn 1 0 0 
vn 1 0 0 
vn 1 0 0 
vn 0 1 0 
vn 0 1 0 
vn 0 1 0 
vn 0 1 0 
vn 0 0 1 
vn 0 0 1 
vn 0 0 1 
vn 0 0 1 
vn -1 0 0 
vn -1 0 0 
vn -1 0 0 
vn -1 0 0 
vn 0 -1 0 
vn 0 -1 0 
vn 0 -1 0 
vn 0 -1 0 
vn 0 0 -1 
vn 0 0 -1 
vn 0 0 -1 
vn 0 0 -1 

vt 21.597 -0.5 
vt 4.25 -0.5 
vt 21.597 -0.769888 
vt 4.25 -0.769888 
vt 4.94203 -0.5 
vt 4.25 -0.5 
vt 4.94203 -17.847 
vt 4.25 -17.847 
vt 4.94203 -0.5 
vt 4.25 -0.5 
vt 4.94203 -0.769888 
vt 4.25 -0.769888 
vt 21.597 -0.5 
vt 4.25 -0.5 
vt 21.597 -0.769888 
vt 4.25 -0.769888 
vt 4.94203 -0.5 
vt 4.25 -0.5 
vt 4.94203 -17.847 
vt 4.25 -17.847 
vt 4.94203 -0.5 
vt 4.25 -0.5 
vt 4.94203 -0.769888 
vt 4.25 -0.769888 

usemtl Part2Mtl

f 169/169/169 170/170/170 171/171/171 
f 171/171/171 170/170/170 172/172/172 
f 173/173/173 174/174/174 175/175/175 
f 175/175/175 174/174/174 176/176/176 
f 177/177/177 178/178/178 179/179/179 
f 179/179/179 178/178/178 180/180/180 
f 181/181/181 182/182/182 183/183/183 
f 183/183/183 182/182/182 184/184/184 
f 185/185/185 186/186/186 187/187/187 
f 187/187/187 186/186/186 188/188/188 
f 189/189/189 190/190/190 191/191/191 
f 191/191/191 190/190/190 192/192/192 

g Part9

v 100.295 1.67547 -86.3052 
v 100.295 1.67547 52.4708 
v 100.295 -0.483632 -86.3052 
v 100.295 -0.483632 52.4708 
v 94.7586 1.67547 52.4708 
v 100.295 1.67547 52.4708 
v 94.7586 1.67547 -86.3052 
v 100.295 1.67547 -86.3052 
v 100.295 1.67547 52.4708 
v 94.7586 1.67547 52.4708 
v 100.295 -0.483632 52.4708 
v 94.7586 -0.483632 52.4708 
v 94.7586 1.67547 52.4708 
v 94.7586 1.67547 -86.3052 
v 94.7586 -0.483632 52.4708 
v 94.7586 -0.483632 -86.3052 
v 94.7586 -0.483632 -86.3052 
v 100.295 -0.483632 -86.3052 
v 94.7586 -0.483632 52.4708 
v 100.295 -0.483632 52.4708 
v 94.7586 1.67547 -86.3052 
v 100.295 1.67547 -86.3052 
v 94.7586 -0.483632 -86.3052 
v 100.295 -0.483632 -86.3052 

vn 1 0 0 
vn 1 0 0 
vn 1 0 0 
vn 1 0 0 
vn 0 1 0 
vn 0 1 0 
vn 0 1 0 
vn 0 1 0 
vn 0 0 1 
vn 0 0 1 
vn 0 0 1 
vn 0 0 1 
vn -1 0 0 
vn -1 0 0 
vn -1 0 0 
vn -1 0 0 
vn 0 -1 0 
vn 0 -1 0 
vn 0 -1 0 
vn 0 -1 0 
vn 0 0 -1 
vn 0 0 -1 
vn 0 0 -1 
vn 0 0 -1 

vt 17.597 -6.75 
vt 0.25 -6.75 
vt 17.597 -7.01989 
vt 0.25 -7.01989 
vt 0.942032 -6.75 
vt 0.25 -6.75 
vt 0.942032 -24.097 
vt 0.25 -24.097 
vt 0.942032 -6.75 
vt 0.25 -6.75 
vt 0.942032 -7.01989 
vt 0.25 -7.01989 
vt 17.597 -6.75 
vt 0.25 -6.75 
vt 17.597 -7.01989 
vt 0.25 -7.01989 
vt 0.942032 -6.75 
vt 0.25 -6.75 
vt 0.942032 -24.097 
vt 0.25 -24.097 
vt 0.942032 -6.75 
vt 0.25 -6.75 
vt 0.942032 -7.01989 
vt 0.25 -7.01989 

usemtl Part2Mtl

f 193/193/193 194/194/194 195/195/195 
f 195/195/195 194/194/194 196/196/196 
f 197/197/197 198/198/198 199/199/199 
f 199/199/199 198/198/198 200/200/200 
f 201/201/201 202/202/202 203/203/203 
f 203/203/203 202/202/202 204/204/204 
f 205/205/205 206/206/206 207/207/207 
f 207/207/207 206/206/206 208/208/208 
f 209/209/209 210/210/210 211/211/211 
f 211/211/211 210/210/210 212/212/212 
f 213/213/213 214/214/214 215/215/215 
f 215/215/215 214/214/214 216/216/216 

