# This file is brought to you by Roblox Corporation
# Generated by Roblox Studio

mtllib stair wall3.mtl

g Part1

v 79.6985 1.69001 96.9638 
v 73.5804 1.69001 96.9638 
v 79.6985 1.00001 96.9638 
v 73.5804 1.00001 96.9638 
v 73.5804 1.69001 96.8974 
v 73.5804 1.69001 96.9638 
v 79.6985 1.69001 96.8974 
v 79.6985 1.69001 96.9638 
v 73.5804 1.69001 96.9638 
v 73.5804 1.69001 96.8974 
v 73.5804 1.00001 96.9638 
v 73.5804 1.00001 96.8974 
v 73.5804 1.69001 96.8974 
v 79.6985 1.69001 96.8974 
v 73.5804 1.00001 96.8974 
v 79.6985 1.00001 96.8974 
v 79.6985 1.00001 96.8974 
v 79.6985 1.00001 96.9638 
v 73.5804 1.00001 96.8974 
v 73.5804 1.00001 96.9638 
v 79.6985 1.69001 96.8974 
v 79.6985 1.69001 96.9638 
v 79.6985 1.00001 96.8974 
v 79.6985 1.00001 96.9638 

vn 0 0 1 
vn 0 0 1 
vn 0 0 1 
vn 0 0 1 
vn 0 1 0 
vn 0 1 0 
vn 0 1 0 
vn 0 1 0 
vn -1 0 0 
vn -1 0 0 
vn -1 0 0 
vn -1 0 0 
vn 0 0 -1 
vn 0 0 -1 
vn 0 0 -1 
vn 0 0 -1 
vn 0 -1 0 
vn 0 -1 0 
vn 0 -1 0 
vn 0 -1 0 
vn 1 0 0 
vn 1 0 0 
vn 1 0 0 
vn 1 0 0 

vt 1.51477 -4 
vt 0.75 -4 
vt 1.51477 -4.08625 
vt 0.75 -4.08625 
vt 0.758303 -4 
vt 0.75 -4 
vt 0.758303 -4.76477 
vt 0.75 -4.76477 
vt 0.758303 -4 
vt 0.75 -4 
vt 0.758303 -4.08625 
vt 0.75 -4.08625 
vt 1.51477 -4 
vt 0.75 -4 
vt 1.51477 -4.08625 
vt 0.75 -4.08625 
vt 0.758303 -4 
vt 0.75 -4 
vt 0.758303 -4.76477 
vt 0.75 -4.76477 
vt 0.758303 -4 
vt 0.75 -4 
vt 0.758303 -4.08625 
vt 0.75 -4.08625 

usemtl Part1Mtl

f 1/1/1 2/2/2 3/3/3 
f 3/3/3 2/2/2 4/4/4 
f 5/5/5 6/6/6 7/7/7 
f 7/7/7 6/6/6 8/8/8 
f 9/9/9 10/10/10 11/11/11 
f 11/11/11 10/10/10 12/12/12 
f 13/13/13 14/14/14 15/15/15 
f 15/15/15 14/14/14 16/16/16 
f 17/17/17 18/18/18 19/19/19 
f 19/19/19 18/18/18 20/20/20 
f 21/21/21 22/22/22 23/23/23 
f 23/23/23 22/22/22 24/24/24 

g Part2

v 73.5806 1.69001 96.9516 
v 73.5806 1.69001 94.366 
v 73.5806 1.00001 96.9516 
v 73.5806 1.00001 94.366 
v 73.647 1.69001 94.366 
v 73.5806 1.69001 94.366 
v 73.647 1.69001 96.9516 
v 73.5806 1.69001 96.9516 
v 73.5806 1.69001 94.366 
v 73.647 1.69001 94.366 
v 73.5806 1.00001 94.366 
v 73.647 1.00001 94.366 
v 73.647 1.69001 94.366 
v 73.647 1.69001 96.9516 
v 73.647 1.00001 94.366 
v 73.647 1.00001 96.9516 
v 73.647 1.00001 96.9516 
v 73.5806 1.00001 96.9516 
v 73.647 1.00001 94.366 
v 73.5806 1.00001 94.366 
v 73.647 1.69001 96.9516 
v 73.5806 1.69001 96.9516 
v 73.647 1.00001 96.9516 
v 73.5806 1.00001 96.9516 

vn -1 0 0 
vn -1 0 0 
vn -1 0 0 
vn -1 0 0 
vn 0 1 0 
vn 0 1 0 
vn 0 1 0 
vn 0 1 0 
vn 0 0 -1 
vn 0 0 -1 
vn 0 0 -1 
vn 0 0 -1 
vn 1 0 0 
vn 1 0 0 
vn 1 0 0 
vn 1 0 0 
vn 0 -1 0 
vn 0 -1 0 
vn 0 -1 0 
vn 0 -1 0 
vn 0 0 1 
vn 0 0 1 
vn 0 0 1 
vn 0 0 1 

vt 7.8232 -4.75 
vt 7.5 -4.75 
vt 7.8232 -4.83625 
vt 7.5 -4.83625 
vt 7.5083 -4.75 
vt 7.5 -4.75 
vt 7.5083 -5.0732 
vt 7.5 -5.0732 
vt 7.5083 -4.75 
vt 7.5 -4.75 
vt 7.5083 -4.83625 
vt 7.5 -4.83625 
vt 7.8232 -4.75 
vt 7.5 -4.75 
vt 7.8232 -4.83625 
vt 7.5 -4.83625 
vt 7.5083 -4.75 
vt 7.5 -4.75 
vt 7.5083 -5.0732 
vt 7.5 -5.0732 
vt 7.5083 -4.75 
vt 7.5 -4.75 
vt 7.5083 -4.83625 
vt 7.5 -4.83625 

usemtl Part1Mtl

f 25/25/25 26/26/26 27/27/27 
f 27/27/27 26/26/26 28/28/28 
f 29/29/29 30/30/30 31/31/31 
f 31/31/31 30/30/30 32/32/32 
f 33/33/33 34/34/34 35/35/35 
f 35/35/35 34/34/34 36/36/36 
f 37/37/37 38/38/38 39/39/39 
f 39/39/39 38/38/38 40/40/40 
f 41/41/41 42/42/42 43/43/43 
f 43/43/43 42/42/42 44/44/44 
f 45/45/45 46/46/46 47/47/47 
f 47/47/47 46/46/46 48/48/48 

g Part3

v 92.4748 20.7626 94.1017 
v 92.4748 20.7626 96.9167 
v 92.4748 3.8147e-06 94.1017 
v 92.4748 3.8147e-06 96.9167 
v 73.621 20.7626 96.9167 
v 92.4748 20.7626 96.9167 
v 73.621 20.7626 94.1017 
v 92.4748 20.7626 94.1017 
v 92.4748 20.7626 96.9167 
v 73.621 20.7626 96.9167 
v 92.4748 3.8147e-06 96.9167 
v 73.621 3.8147e-06 96.9167 
v 73.621 20.7626 96.9167 
v 73.621 20.7626 94.1017 
v 73.621 3.8147e-06 96.9167 
v 73.621 3.8147e-06 94.1017 
v 73.621 3.8147e-06 94.1017 
v 92.4748 3.8147e-06 94.1017 
v 73.621 3.8147e-06 96.9167 
v 92.4748 3.8147e-06 96.9167 
v 73.621 20.7626 94.1017 
v 92.4748 20.7626 94.1017 
v 73.621 3.8147e-06 94.1017 
v 92.4748 3.8147e-06 94.1017 

vn 1 0 0 
vn 1 0 0 
vn 1 0 0 
vn 1 0 0 
vn 0 1 0 
vn 0 1 0 
vn 0 1 0 
vn 0 1 0 
vn 0 0 1 
vn 0 0 1 
vn 0 0 1 
vn 0 0 1 
vn -1 0 0 
vn -1 0 0 
vn -1 0 0 
vn -1 0 0 
vn 0 -1 0 
vn 0 -1 0 
vn 0 -1 0 
vn 0 -1 0 
vn 0 0 -1 
vn 0 0 -1 
vn 0 0 -1 
vn 0 0 -1 

vt 6.60187 -0.75 
vt 6.25 -0.75 
vt 6.60187 -3.34532 
vt 6.25 -3.34532 
vt 8.60672 -0.75 
vt 6.25 -0.75 
vt 8.60672 -1.10187 
vt 6.25 -1.10187 
vt 8.60672 -0.75 
vt 6.25 -0.75 
vt 8.60672 -3.34532 
vt 6.25 -3.34532 
vt 6.60187 -0.75 
vt 6.25 -0.75 
vt 6.60187 -3.34532 
vt 6.25 -3.34532 
vt 8.60672 -0.75 
vt 6.25 -0.75 
vt 8.60672 -1.10187 
vt 6.25 -1.10187 
vt 8.60672 -0.75 
vt 6.25 -0.75 
vt 8.60672 -3.34532 
vt 6.25 -3.34532 

usemtl Part3Mtl

f 49/49/49 50/50/50 51/51/51 
f 51/51/51 50/50/50 52/52/52 
f 53/53/53 54/54/54 55/55/55 
f 55/55/55 54/54/54 56/56/56 
f 57/57/57 58/58/58 59/59/59 
f 59/59/59 58/58/58 60/60/60 
f 61/61/61 62/62/62 63/63/63 
f 63/63/63 62/62/62 64/64/64 
f 65/65/65 66/66/66 67/67/67 
f 67/67/67 66/66/66 68/68/68 
f 69/69/69 70/70/70 71/71/71 
f 71/71/71 70/70/70 72/72/72 

